<svg width="153" height="52" viewBox="0 0 153 52" fill="none" xmlns="http://www.w3.org/2000/svg">
<g id="App store - Available on the app store" clip-path="url(#clip0_2_23893)">
<path id="Vector" d="M152.021 46.1228C152.021 48.8439 150.079 51.0479 147.677 51.0479H5.49622C3.09499 51.0479 1.146 48.8439 1.146 46.1228V6.84659C1.146 4.12684 3.09508 1.91504 5.49622 1.91504H147.675C150.079 1.91504 152.02 4.12684 152.02 6.84659L152.021 46.1228Z" fill="white"/>
<path id="Vector_2" d="M146.699 52.0581H5.4608C2.52615 52.0581 0.137451 49.4036 0.137451 46.1383V7.84107C0.137451 4.57335 2.52615 1.91504 5.4608 1.91504H146.698C149.629 1.91504 152.021 4.57335 152.021 7.84107V46.1383C152.023 49.4036 149.631 52.0581 146.699 52.0581Z" fill="#A6A6A6"/>
<path id="Vector_3" d="M152.021 46.1228C152.021 48.8439 150.079 51.0479 147.676 51.0479H5.49622C3.09499 51.0479 1.146 48.8439 1.146 46.1228V6.84659C1.146 4.12684 3.09508 1.91504 5.49622 1.91504H147.675C150.079 1.91504 152.02 4.12684 152.02 6.84659L152.021 46.1228Z" fill="black"/>
<path id="Vector_4" d="M34.2783 25.79C34.2454 22.1377 37.2688 20.3609 37.407 20.2782C35.6947 17.7818 33.0409 17.4407 32.1083 17.4135C29.8793 17.1789 27.7172 18.7472 26.5817 18.7472C25.4236 18.7472 23.6751 17.4361 21.7906 17.4747C19.3656 17.5121 17.097 18.9161 15.8527 21.0963C13.285 25.5418 15.2 32.0747 17.6602 35.668C18.8908 37.429 20.3289 39.3928 22.211 39.3237C24.0524 39.2489 24.7403 38.1509 26.9625 38.1509C29.1642 38.1509 29.8102 39.3237 31.7297 39.2795C33.7061 39.2489 34.9502 37.5117 36.1379 35.736C37.5601 33.7201 38.1311 31.7325 38.1539 31.6305C38.1084 31.6146 34.3168 30.1664 34.2783 25.79ZM30.6521 15.0496C31.6424 13.8111 32.3201 12.126 32.132 10.416C30.6984 10.4795 28.9058 11.4076 27.8734 12.6189C26.96 13.6864 26.1441 15.4361 26.3549 17.0814C27.9653 17.2016 29.6186 16.2689 30.6521 15.0496Z" fill="white"/>
<path id="Vector_5" d="M146.608 1.56445H62.4927L95.4391 52.0586H146.608C149.867 52.0586 152.527 49.3855 152.527 46.0936V7.53198C152.528 4.24138 149.868 1.56445 146.608 1.56445Z" fill="url(#paint0_linear_2_23893)"/>
<g id="Group">
<path id="Vector_6" d="M56.7228 38.9086H53.8752L52.3153 34.007H46.8932L45.4073 38.9086H42.635L48.0081 22.2214H51.3259L56.7228 38.9086ZM51.8452 31.9506L50.4345 27.5932C50.2853 27.1481 50.0044 26.0998 49.593 24.4496H49.543C49.3774 25.1594 49.1129 26.2076 48.7505 27.5932L47.3637 31.9506H51.8452ZM70.5135 32.7443C70.5135 34.7907 69.9581 36.4083 68.8457 37.5959C67.8502 38.6528 66.6126 39.1808 65.1366 39.1808C63.5429 39.1808 62.3968 38.6127 61.7009 37.4742V43.7877H59.0275V30.8308C59.0275 29.5455 58.9938 28.2277 58.9286 26.876H61.2797L61.4289 28.7832H61.4789C62.3705 27.3462 63.7235 26.6276 65.5391 26.6276C66.9586 26.6276 68.1435 27.1881 69.0915 28.3104C70.0382 29.4352 70.5135 30.9124 70.5135 32.7443ZM67.7899 32.8421C67.7899 31.671 67.5266 30.7055 66.9974 29.9443C66.4194 29.1531 65.6432 28.757 64.6702 28.757C64.0106 28.757 63.4112 28.9776 62.8758 29.4127C62.3391 29.8515 61.988 30.4246 61.8239 31.1343C61.7411 31.4653 61.6997 31.7349 61.6997 31.9482V33.9556C61.6997 34.8296 61.9681 35.5683 62.5048 36.1727C63.0414 36.7745 63.7386 37.0766 64.5963 37.0766C65.6033 37.0766 66.387 36.6868 66.9474 35.913C67.509 35.1368 67.7899 34.1136 67.7899 32.8421ZM84.353 32.7443C84.353 34.7907 83.7975 36.4083 82.6853 37.5959C81.6884 38.6528 80.452 39.1808 78.9749 39.1808C77.3812 39.1808 76.2351 38.6127 75.5392 37.4742V43.7877H72.8658V30.8308C72.8658 29.5455 72.8319 28.2277 72.7667 26.876H75.1178L75.2671 28.7832H75.3172C76.2075 27.3462 77.5605 26.6276 79.3773 26.6276C80.7955 26.6276 81.9805 27.1881 82.931 28.3104C83.8766 29.4352 84.353 30.9124 84.353 32.7443ZM81.6282 32.8421C81.6282 31.671 81.3637 30.7055 80.8345 29.9443C80.2564 29.1531 79.4827 28.757 78.5097 28.757C77.8501 28.757 77.2508 28.9776 76.7128 29.4127C76.1762 29.8515 75.8264 30.4246 75.6621 31.1343C75.5805 31.4653 75.5367 31.7349 75.5367 31.9482V33.9556C75.5367 34.8296 75.8062 35.5683 76.3404 36.1727C76.8771 36.7733 77.5743 37.0766 78.4345 37.0766C79.4425 37.0766 80.2262 36.6868 80.7856 35.913C81.3473 35.1368 81.6282 34.1136 81.6282 32.8421ZM99.8264 34.2277C99.8264 35.6484 99.3298 36.8033 98.3431 37.6948C97.2571 38.6679 95.7412 39.1556 93.7975 39.1556C92.0019 39.1556 90.5624 38.8095 89.4765 38.1161L90.0947 35.8879C91.2671 36.5826 92.5549 36.9287 93.9568 36.9287C94.9649 36.9287 95.7486 36.7005 96.3079 36.2478C96.8683 35.7939 97.1518 35.187 97.1518 34.4296C97.1518 33.7513 96.9173 33.1832 96.4571 32.7206C95.9944 32.2592 95.2295 31.8291 94.155 31.4341C91.2332 30.3444 89.7712 28.7507 89.7712 26.6541C89.7712 25.2849 90.2878 24.1639 91.3186 23.2874C92.3493 22.4121 93.7161 21.9746 95.4164 21.9746C96.9349 21.9746 98.2001 22.2392 99.2045 22.7671L98.5337 24.9463C97.5882 24.4347 96.521 24.1789 95.3273 24.1789C94.3845 24.1789 93.6445 24.4109 93.1154 24.8723C92.6702 25.2849 92.4445 25.7878 92.4445 26.3845C92.4445 27.043 92.7017 27.5897 93.2132 28.0185C93.6571 28.4134 94.4671 28.8436 95.6383 29.305C97.0753 29.8843 98.131 30.559 98.8069 31.3339C99.4878 32.1086 99.8264 33.0754 99.8264 34.2277ZM108.688 28.8823H105.741V34.7243C105.741 36.2102 106.26 36.9512 107.301 36.9512C107.779 36.9512 108.175 36.911 108.489 36.8271L108.562 38.8572C108.036 39.0542 107.342 39.1531 106.483 39.1531C105.428 39.1531 104.603 38.8309 104.007 38.1863C103.414 37.5418 103.116 36.4622 103.116 34.9425V28.8772H101.36V26.871H103.116V24.6678L105.741 23.8753V26.871H108.688V28.8823ZM121.957 32.7932C121.957 34.6427 121.428 36.1612 120.372 37.3487C119.267 38.5713 117.798 39.1807 115.966 39.1807C114.198 39.1807 112.792 38.5951 111.744 37.4252C110.695 36.2527 110.171 34.7757 110.171 32.9939C110.171 31.1292 110.713 29.602 111.793 28.4145C112.875 27.2258 114.332 26.6316 116.164 26.6316C117.929 26.6316 119.348 27.2183 120.421 28.3895C121.447 29.5255 121.957 30.9926 121.957 32.7932ZM119.186 32.8547C119.186 31.7524 118.948 30.8069 118.47 30.0157C117.909 29.0602 117.107 28.5826 116.067 28.5826C114.996 28.5826 114.175 29.0602 113.616 30.0157C113.137 30.8069 112.898 31.7687 112.898 32.9047C112.898 34.0083 113.137 34.9561 113.616 35.745C114.194 36.7005 115 37.1782 116.045 37.1782C117.067 37.1782 117.868 36.6904 118.447 35.7211C118.939 34.9111 119.186 33.9594 119.186 32.8547ZM130.65 29.2271C130.386 29.1781 130.102 29.153 129.808 29.153C128.867 29.153 128.14 29.5067 127.629 30.2188C127.185 30.8458 126.961 31.6383 126.961 32.595V38.9085H124.288V30.6653C124.288 29.2797 124.262 28.0158 124.21 26.8772H126.539L126.637 29.1793H126.711C126.994 28.3882 127.438 27.7499 128.047 27.2721C128.643 26.8421 129.286 26.6276 129.98 26.6276C130.227 26.6276 130.45 26.6452 130.648 26.6766L130.65 29.2271ZM142.607 32.323C142.607 32.802 142.575 33.2057 142.509 33.5356H134.489C134.519 34.7243 134.907 35.6346 135.652 36.2616C136.328 36.8209 137.202 37.1017 138.275 37.1017C139.463 37.1017 140.546 36.9136 141.521 36.5337L141.939 38.3882C140.801 38.8848 139.457 39.1318 137.905 39.1318C136.04 39.1318 134.575 38.5825 133.509 37.4867C132.446 36.3895 131.913 34.9149 131.913 33.0678C131.913 31.2546 132.408 29.7437 133.4 28.5387C134.438 27.2522 135.842 26.6088 137.607 26.6088C139.341 26.6088 140.654 27.2521 141.546 28.5387C142.252 29.5581 142.607 30.8221 142.607 32.323ZM140.057 31.6296C140.076 30.8359 139.9 30.1525 139.538 29.5744C139.075 28.8296 138.363 28.4584 137.409 28.4584C136.535 28.4584 135.823 28.8208 135.281 29.5481C134.836 30.1261 134.571 30.8208 134.49 31.6271L140.057 31.6296Z" fill="white"/>
</g>
<g id="Group_2">
<path id="Vector_7" d="M55.3769 19.6967H54.111L53.4186 17.5199H51.0106L50.3499 19.6967H49.1182L51.5047 12.2845H52.9778L55.3769 19.6967ZM53.2101 16.6065L52.5835 14.671C52.5177 14.4727 52.3965 14.0115 52.2095 13.275H52.1868C52.1098 13.5934 51.9999 14.0557 51.8344 14.671L51.2191 16.6065H53.2101ZM61.3442 14.3526L59.3203 19.6967H58.1655L56.2074 14.3526H57.4834L58.3967 17.1788C58.5508 17.6513 58.6823 18.1023 58.7809 18.5307H58.8137C58.9022 18.1465 59.0336 17.6955 59.1979 17.1788L60.0999 14.3526H61.3442ZM65.6526 19.6967L65.5642 19.0813H65.5312C65.1686 19.5765 64.6405 19.8179 63.9698 19.8179C63.0133 19.8179 62.3311 19.147 62.3311 18.245C62.3311 16.926 63.4745 16.2438 65.4541 16.2438V16.1452C65.4541 15.4415 65.0802 15.0891 64.3436 15.0891C63.8155 15.0891 63.3532 15.2217 62.9475 15.4857L62.7061 14.7049C63.2013 14.3967 63.8167 14.2426 64.543 14.2426C65.9391 14.2426 66.6439 14.9792 66.6439 16.4535V18.4218C66.6439 18.9612 66.6666 19.3794 66.721 19.6978L65.6526 19.6967ZM65.4871 17.0349C64.167 17.0349 63.5074 17.3544 63.5074 18.1125C63.5074 18.6735 63.8485 18.9477 64.3211 18.9477C64.9261 18.9477 65.4871 18.4865 65.4871 17.8598V17.0349ZM69.289 13.4721C68.8935 13.4721 68.5852 13.1639 68.5852 12.7571C68.5852 12.3503 68.9038 12.0534 69.3116 12.0534C69.7184 12.0534 70.0482 12.3503 70.037 12.7571C70.037 13.1866 69.7299 13.4721 69.289 13.4721ZM69.9054 19.6967H68.7178V14.3526H69.9054V19.6967ZM73.203 19.6967H72.0154V11.9004H73.203V19.6967ZM78.2502 19.6967L78.1618 19.0813H78.129C77.7664 19.5765 77.2383 19.8179 76.5674 19.8179C75.611 19.8179 74.9289 19.147 74.9289 18.245C74.9289 16.926 76.0721 16.2438 78.0518 16.2438V16.1452C78.0518 15.4415 77.6779 15.0891 76.9413 15.0891C76.4132 15.0891 75.9509 15.2217 75.5452 15.4857L75.3028 14.7038C75.798 14.3956 76.4133 14.2415 77.1397 14.2415C78.5358 14.2415 79.2405 14.978 79.2405 16.4523V18.4207C79.2405 18.9601 79.2644 19.3782 79.3166 19.6966H78.2502V19.6967ZM78.0848 17.0349C76.7646 17.0349 76.1051 17.3544 76.1051 18.1125C76.1051 18.6735 76.4461 18.9477 76.9186 18.9477C77.5238 18.9477 78.0848 18.4865 78.0848 17.8598V17.0349ZM84.0523 19.818C83.2942 19.818 82.7343 19.4984 82.3716 18.8718H82.3479L82.2799 19.6967H81.2679C81.3008 19.2684 81.3121 18.7834 81.3121 18.2565V11.9004H82.5008V15.1345H82.5235C82.8758 14.5407 83.446 14.2438 84.2278 14.2438C85.5151 14.2438 86.4171 15.3442 86.4171 16.9488C86.4171 18.6077 85.4154 19.818 84.0523 19.818ZM83.8108 15.1764C83.1275 15.1764 82.5021 15.7702 82.5021 16.5952V17.5301C82.5021 18.2667 83.064 18.8718 83.7905 18.8718C84.6801 18.8718 85.2093 18.1465 85.2093 16.9918C85.208 15.9142 84.6573 15.1764 83.8108 15.1764ZM89.36 19.6967H88.1737V11.9004H89.36V19.6967ZM95.825 17.3102H92.26C92.2838 18.3222 92.9522 18.8933 93.9427 18.8933C94.4707 18.8933 94.9546 18.8049 95.3829 18.6406L95.5677 19.4656C95.0623 19.6854 94.4685 19.7953 93.7761 19.7953C92.1035 19.7953 91.1142 18.7392 91.1142 17.1017C91.1142 15.4631 92.1274 14.2314 93.6424 14.2314C95.0057 14.2314 95.8645 15.2433 95.8645 16.772C95.8691 16.9805 95.8589 17.1675 95.825 17.3102ZM94.7359 16.4637C94.7359 15.6388 94.3176 15.0563 93.5585 15.0563C92.8762 15.0563 92.3392 15.6501 92.2599 16.4637H94.7359ZM103.023 19.818C101.461 19.818 100.449 18.6519 100.449 17.0689C100.449 15.4189 101.483 14.2427 103.112 14.2427C104.65 14.2427 105.686 15.3532 105.686 16.9816C105.686 18.6519 104.618 19.818 103.023 19.818ZM103.068 15.1107C102.21 15.1107 101.661 15.913 101.661 17.0349C101.661 18.1352 102.222 18.9375 103.057 18.9375C103.892 18.9375 104.452 18.0797 104.452 17.0122C104.453 15.9244 103.903 15.1107 103.068 15.1107ZM112.07 19.6967H110.884V16.6281C110.884 15.683 110.521 15.2093 109.806 15.2093C109.103 15.2093 108.618 15.8144 108.618 16.5181V19.6967H107.431V15.8802C107.431 15.4076 107.419 14.9011 107.387 14.3515H108.432L108.487 15.1764H108.52C108.837 14.6053 109.488 14.2416 110.213 14.2416C111.334 14.2416 112.07 15.0994 112.07 16.4955V19.6967H112.07ZM119.841 15.2433H118.534V17.8383C118.534 18.499 118.764 18.8287 119.225 18.8287C119.435 18.8287 119.612 18.8061 119.753 18.7732L119.786 19.6752C119.555 19.7637 119.246 19.8078 118.864 19.8078C117.928 19.8078 117.369 19.2911 117.369 17.938V15.2433H116.589V14.3526H117.369V13.3735L118.534 13.0211V14.3515H119.841V15.2433ZM126.13 19.6967H124.941V16.6507C124.941 15.6943 124.578 15.2104 123.864 15.2104C123.248 15.2104 122.677 15.6286 122.677 16.4751V19.6967H121.488V11.9004H122.677V15.1107H122.7C123.074 14.5283 123.613 14.2416 124.305 14.2416C125.438 14.2416 126.13 15.1209 126.13 16.5181V19.6967ZM132.198 17.3102H128.634C128.657 18.3222 129.326 18.8933 130.316 18.8933C130.845 18.8933 131.328 18.8049 131.756 18.6406L131.942 19.4656C131.437 19.6854 130.842 19.7953 130.149 19.7953C128.477 19.7953 127.488 18.7392 127.488 17.1017C127.488 15.4631 128.501 14.2314 130.016 14.2314C131.379 14.2314 132.238 15.2433 132.238 16.772C132.242 16.9805 132.231 17.1675 132.198 17.3102ZM131.109 16.4637C131.109 15.6388 130.692 15.0563 129.933 15.0563C129.249 15.0563 128.712 15.6501 128.634 16.4637H131.109Z" fill="white"/>
</g>
</g>
<defs>
<linearGradient id="paint0_linear_2_23893" x1="107.511" y1="52.1959" x2="107.511" y2="6.6805" gradientUnits="userSpaceOnUse">
<stop stop-color="#1A1A1A" stop-opacity="0.1"/>
<stop offset="0.123" stop-color="#212121" stop-opacity="0.151"/>
<stop offset="0.308" stop-color="#353535" stop-opacity="0.227"/>
<stop offset="0.532" stop-color="#575757" stop-opacity="0.318"/>
<stop offset="0.783" stop-color="#858585" stop-opacity="0.421"/>
<stop offset="1" stop-color="#B3B3B3" stop-opacity="0.51"/>
</linearGradient>
<clipPath id="clip0_2_23893">
<rect width="152.116" height="51.3639" fill="white" transform="translate(0.137451 0.274414)"/>
</clipPath>
</defs>
</svg>
