<svg width="68" height="67" viewBox="0 0 68 67" fill="none" xmlns="http://www.w3.org/2000/svg">
<g id="Group">
<path id="Vector" d="M55.5964 34.0035L58.7193 42.1978C58.0935 45.1284 58.1025 51.095 56.4342 53.9702L54.8294 54.5659C54.5379 54.6367 54.2936 54.9019 54.2672 55.217C54.1909 55.7501 54.5034 56.1887 55.11 56.1442L57.4866 56.1843C57.9961 56.1634 58.4111 55.7538 58.3903 55.2443L58.3721 54.3226C58.7618 50.4202 61.1921 46.0221 62.1566 43.215C62.4037 42.5376 62.2384 41.8574 61.9024 41.3215C58.7312 36.7407 59.705 28.8889 58.9204 26.5068L55.62 34.1007L55.5964 34.0035Z" fill="#EAEAEA"/>
<path id="Vector_2" d="M27.7453 27.8044C28.4064 30.5252 29.7476 33.0808 31.8454 34.938C30.2797 36.965 28.6405 39.1127 27.0748 41.1397C26.5362 41.888 26.2392 42.7834 26.4517 43.658C26.7114 44.7269 27.3598 45.7014 28.179 46.5314C28.9981 47.3615 30.0615 47.9264 31.0514 48.6121C32.0413 49.2977 33.0312 49.9834 33.7531 50.8371C33.774 51.3466 33.7949 51.8561 33.7922 52.2684C33.863 52.5599 33.9574 52.9486 34.3697 52.9513C34.8056 53.0512 35.2443 52.7388 35.3678 52.4001C35.5912 51.6254 35.6939 50.7772 35.9173 50.0026C36.0907 49.4459 35.6575 48.9337 35.198 48.7366C35.0037 48.7838 34.8593 48.6131 34.6413 48.5631C32.4146 47.8692 30.6819 45.8204 29.4586 43.7507C29.7293 43.1704 29.9527 42.3957 29.9818 41.6683C32.007 39.8384 34.2502 38.0585 36.3726 36.205C36.1656 34.5058 36.0557 32.7831 35.8487 31.0839C33.1624 30.1929 30.7259 28.2122 27.8189 27.6836L27.7453 27.8044Z" fill="#EAEAEA"/>
<path id="Vector_3" d="M58.4785 20.4448C57.7591 19.1788 56.7718 18.0808 55.4667 17.3687C54.2588 16.633 52.3261 15.4559 51.3125 14.673C50.9265 14.3551 49.4298 13.278 49.0674 13.0572C48.319 12.5187 47.7177 11.7385 47.0665 11.1763C46.3182 10.6377 45.3754 10.1463 44.5009 10.3588C43.8206 10.524 43.1877 10.8835 42.6755 11.3166C42.0425 11.6762 41.4095 12.0358 40.6584 11.9095C39.9073 11.7832 39.3533 11.1974 38.6522 10.8531C37.4679 10.2146 35.8422 10.3007 34.8178 11.1669C34.0613 11.8652 33.57 12.8078 32.958 13.6768C32.1016 14.8109 28.0203 15.8022 26.1759 19.6461L25.9553 20.0084C25.5875 20.6123 25.0753 21.0454 24.5395 21.3813L22.7141 22.3392C22.4225 22.41 22.1546 22.578 21.9367 22.528C20.4791 22.882 19.1004 22.2907 18.3311 21.2427L15.5664 17.4892L11.7172 12.6612C12.0323 12.6876 12.3974 12.496 12.6417 12.2309L13.2038 11.5798L12.5027 11.2356C12.1639 11.112 11.7516 11.1093 11.4837 11.2772L10.0234 12.0435L6.52776 12.4809C5.33804 12.667 4.09838 13.071 2.97951 13.5485L1.7871 14.1468C1.42202 14.3384 1.1278 14.8215 1.22228 15.2102L1.38761 15.8904L1.19325 15.9376C1.14331 16.1555 1.09336 16.3735 1.11697 16.4707C1.16421 16.665 1.4058 16.8121 1.69732 16.7413L3.05779 16.4109L1.18515 17.1744L1.23239 17.3688C1.59477 17.5895 2.00708 17.5922 2.27499 17.4243L2.5665 17.3535C3.24402 17.6005 4.02412 16.9995 4.02412 16.9995C5.27929 17.9295 6.94952 18.45 8.55156 18.2667L15.6041 26.5358C17.6258 28.9262 20.7718 30.0144 23.8315 29.4771L27.2798 28.8454C28.8448 30.6264 30.7538 31.7063 32.9808 32.4004C33.8891 34.4437 34.8682 36.7786 35.7765 38.8219C34.8122 41.6288 36.4425 44.5259 37.28 46.2777L37.6146 54.429L36.2542 54.7594C35.8655 54.8538 35.6212 55.119 35.6185 55.5313C35.6158 55.9436 36.0254 56.3586 36.4377 56.3614L39.106 56.3308C39.7126 56.2863 40.104 55.7796 40.0595 55.173L39.7997 54.1041L39.0527 45.9501C40.1251 41.4704 38.3503 38.4027 38.3503 38.4027L37.6398 32.092L38.6824 32.1476L38.8841 34.6712L50.1564 31.9335L49.7158 28.8504L50.2516 28.5144C52.0189 29.0113 52.8436 29.0169 52.8436 29.0169C53.5677 33.266 54.3889 37.4916 55.2101 41.7171C53.3685 45.1487 54.1452 48.7676 50.9114 53.6693L49.2594 54.0706C48.7735 54.1886 48.4793 54.6717 48.5974 55.1575C48.7155 55.6434 49.1015 55.9612 49.611 55.9404L51.9641 55.8834C52.3764 55.8862 52.7914 55.4767 52.7941 55.0644L52.7996 54.2398C53.8955 49.8573 57.9984 45.5678 57.991 42.9969C58.0072 40.5232 57.0153 36.442 58.8995 30.2216C60.7836 24.0012 59.7809 21.5692 58.8699 19.9381L58.4785 20.4448Z" fill="#EAEAEA"/>
</g>
</svg>
