<svg width="149" height="52" viewBox="0 0 149 52" fill="none" xmlns="http://www.w3.org/2000/svg">
<g id="Google play_dark - Get in on Google play " clip-path="url(#clip0_2_23903)">
<path id="Vector" d="M143.452 51.5512H4.97018C1.86819 51.5512 -0.569092 48.731 -0.569092 45.1416V6.68402C-0.569092 3.09464 1.86819 0.274414 4.97018 0.274414H143.452C146.554 0.274414 148.991 3.09464 148.991 6.68402V45.1416C148.991 48.731 146.554 51.5512 143.452 51.5512Z" fill="black"/>
<path id="Vector_2" d="M143.452 1.29995C146 1.29995 148.105 3.7356 148.105 6.68402V45.1416C148.105 48.09 146 50.5257 143.452 50.5257H4.97018C2.42212 50.5257 0.317192 48.09 0.317192 45.1416V6.68402C0.317192 3.7356 2.42212 1.29995 4.97018 1.29995H143.452ZM143.452 0.274414H4.97018C1.86819 0.274414 -0.569092 3.22283 -0.569092 6.68402V45.1416C-0.569092 48.731 1.86819 51.5512 4.97018 51.5512H143.452C146.554 51.5512 148.991 48.731 148.991 45.1416V6.68402C148.991 3.22283 146.554 0.274414 143.452 0.274414Z" fill="#A6A6A6"/>
<path id="Vector_3" d="M51.943 14.6012C51.943 15.4875 51.7215 16.263 51.1675 16.8169C50.5028 17.4817 49.7273 17.814 48.7302 17.814C47.7332 17.814 46.9577 17.4817 46.293 16.8169C45.6283 16.1522 45.2959 15.3767 45.2959 14.3797C45.2959 13.3826 45.6283 12.6071 46.293 11.9424C46.9577 11.2777 47.7332 10.9453 48.7302 10.9453C49.1734 10.9453 49.6165 11.0561 50.0597 11.2777C50.5028 11.4992 50.8352 11.7208 51.0567 12.0532L50.5028 12.6071C50.0597 12.0532 49.5057 11.8316 48.7302 11.8316C48.0655 11.8316 47.4008 12.0532 46.9577 12.6071C46.4038 13.0502 46.1822 13.715 46.1822 14.4904C46.1822 15.2659 46.4038 15.9307 46.9577 16.3738C47.5116 16.8169 48.0655 17.1493 48.7302 17.1493C49.5057 17.1493 50.0597 16.9277 50.6136 16.3738C50.946 16.0414 51.1675 15.5983 51.1675 15.0444H48.7302V14.1581H51.943V14.6012ZM57.0392 11.8316H54.048V13.9365H56.8176V14.712H54.048V16.8169H57.0392V17.7032H53.1617V11.0561H57.0392V11.8316ZM60.6951 17.7032H59.8088V11.8316H57.9254V11.0561H62.5784V11.8316H60.6951V17.7032ZM65.7912 17.7032V11.0561H66.6775V17.7032H65.7912ZM70.4442 17.7032H69.5579V11.8316H67.6746V11.0561H72.2168V11.8316H70.3334V17.7032H70.4442ZM80.9688 16.8169C80.3041 17.4817 79.5286 17.814 78.5316 17.814C77.5345 17.814 76.759 17.4817 76.0943 16.8169C75.4296 16.1522 75.0972 15.3767 75.0972 14.3797C75.0972 13.3826 75.4296 12.6071 76.0943 11.9424C76.759 11.2777 77.5345 10.9453 78.5316 10.9453C79.5286 10.9453 80.3041 11.2777 80.9688 11.9424C81.6335 12.6071 81.9659 13.3826 81.9659 14.3797C81.9659 15.3767 81.6335 16.1522 80.9688 16.8169ZM76.759 16.263C77.2021 16.7062 77.8668 17.0385 78.5316 17.0385C79.1963 17.0385 79.861 16.8169 80.3041 16.263C80.7473 15.8199 81.0796 15.1552 81.0796 14.3797C81.0796 13.6042 80.858 12.9395 80.3041 12.4963C79.861 12.0532 79.1963 11.7208 78.5316 11.7208C77.8668 11.7208 77.2021 11.9424 76.759 12.4963C76.3158 12.9395 75.9835 13.6042 75.9835 14.3797C75.9835 15.1552 76.2051 15.8199 76.759 16.263ZM83.1845 17.7032V11.0561H84.1816L87.3944 16.263V11.0561H88.2807V17.7032H87.3944L83.96 12.2747V17.7032H83.1845Z" fill="white" stroke="white" stroke-width="0.103232" stroke-miterlimit="10"/>
<path id="Vector_4" d="M74.8757 27.4511C72.2169 27.4511 70.1119 29.4452 70.1119 32.2148C70.1119 34.8737 72.2169 36.9786 74.8757 36.9786C77.5346 36.9786 79.6395 34.9845 79.6395 32.2148C79.6395 29.3344 77.5346 27.4511 74.8757 27.4511ZM74.8757 34.9845C73.4355 34.9845 72.2169 33.7658 72.2169 32.1041C72.2169 30.4423 73.4355 29.2236 74.8757 29.2236C76.3159 29.2236 77.5346 30.3315 77.5346 32.1041C77.5346 33.7658 76.3159 34.9845 74.8757 34.9845ZM64.5727 27.4511C61.9138 27.4511 59.8089 29.4452 59.8089 32.2148C59.8089 34.8737 61.9138 36.9786 64.5727 36.9786C67.2315 36.9786 69.3364 34.9845 69.3364 32.2148C69.3364 29.3344 67.2315 27.4511 64.5727 27.4511ZM64.5727 34.9845C63.1324 34.9845 61.9138 33.7658 61.9138 32.1041C61.9138 30.4423 63.1324 29.2236 64.5727 29.2236C66.0129 29.2236 67.2315 30.3315 67.2315 32.1041C67.2315 33.7658 66.0129 34.9845 64.5727 34.9845ZM52.2755 28.8913V30.8854H57.0392C56.9285 31.9933 56.4853 32.8796 55.9314 33.4335C55.2667 34.0982 54.1588 34.8737 52.2755 34.8737C49.2843 34.8737 47.0685 32.5472 47.0685 29.556C47.0685 26.5648 49.395 24.2383 52.2755 24.2383C53.8265 24.2383 55.0451 24.903 55.9314 25.6785L57.3716 24.2383C56.153 23.1304 54.602 22.2441 52.3863 22.2441C48.398 22.2441 44.9636 25.5677 44.9636 29.556C44.9636 33.5443 48.398 36.8678 52.3863 36.8678C54.602 36.8678 56.153 36.2031 57.4824 34.7629C58.8118 33.4335 59.255 31.5501 59.255 30.1099C59.255 29.6668 59.255 29.2236 59.1442 28.8913H52.2755ZM102.572 30.4423C102.129 29.3344 101.021 27.4511 98.5838 27.4511C96.1465 27.4511 94.1524 29.3344 94.1524 32.2148C94.1524 34.8737 96.1465 36.9786 98.8054 36.9786C100.91 36.9786 102.24 35.6492 102.683 34.8737L101.132 33.7658C100.578 34.5413 99.9132 35.0953 98.8054 35.0953C97.6975 35.0953 97.0328 34.6521 96.4789 33.655L102.794 30.9962L102.572 30.4423ZM96.1465 31.9933C96.1465 30.2207 97.5867 29.2236 98.5838 29.2236C99.3593 29.2236 100.135 29.6668 100.356 30.2207L96.1465 31.9933ZM90.9396 36.5355H93.0445V22.6873H90.9396V36.5355ZM87.616 28.4481C87.0621 27.8942 86.1758 27.3403 85.068 27.3403C82.7415 27.3403 80.5258 29.4452 80.5258 32.1041C80.5258 34.7629 82.6307 36.757 85.068 36.757C86.1758 36.757 87.0621 36.2031 87.5053 35.6492H87.616V36.3139C87.616 38.0865 86.619 39.0835 85.068 39.0835C83.8493 39.0835 82.9631 38.1973 82.7415 37.4218L80.9689 38.1973C81.5228 39.4159 82.8523 40.9669 85.1788 40.9669C87.616 40.9669 89.6102 39.5267 89.6102 36.0923V27.6726H87.616V28.4481ZM85.1788 34.9845C83.7386 34.9845 82.5199 33.7658 82.5199 32.1041C82.5199 30.4423 83.7386 29.2236 85.1788 29.2236C86.619 29.2236 87.7268 30.4423 87.7268 32.1041C87.7268 33.7658 86.619 34.9845 85.1788 34.9845ZM112.21 22.6873H107.225V36.5355H109.33V31.3286H112.21C114.537 31.3286 116.753 29.6668 116.753 27.0079C116.753 24.3491 114.537 22.6873 112.21 22.6873ZM112.321 29.3344H109.33V24.5706H112.321C113.872 24.5706 114.758 25.9001 114.758 26.8971C114.648 28.1158 113.761 29.3344 112.321 29.3344ZM125.062 27.3403C123.511 27.3403 121.96 28.005 121.406 29.4452L123.289 30.2207C123.732 29.4452 124.397 29.2236 125.172 29.2236C126.28 29.2236 127.277 29.8883 127.388 30.9962V31.107C127.056 30.8854 126.169 30.5531 125.283 30.5531C123.289 30.5531 121.295 31.6609 121.295 33.655C121.295 35.5384 122.957 36.757 124.729 36.757C126.169 36.757 126.834 36.0923 127.388 35.4276H127.499V36.5355H129.493V31.2178C129.271 28.7805 127.388 27.3403 125.062 27.3403ZM124.84 34.9845C124.175 34.9845 123.178 34.6521 123.178 33.7658C123.178 32.658 124.397 32.3256 125.394 32.3256C126.28 32.3256 126.723 32.5472 127.277 32.7688C127.056 34.0982 125.948 34.9845 124.84 34.9845ZM136.472 27.6726L134.146 33.655H134.035L131.598 27.6726H129.382L133.038 36.0923L130.933 40.7453H133.038L138.688 27.6726H136.472ZM117.86 36.5355H119.965V22.6873H117.86V36.5355Z" fill="white"/>
<g id="Group">
<path id="Vector_5" d="M10.9527 12.0449C10.6203 12.3773 10.5095 12.9312 10.5095 13.5959V38.0795C10.5095 38.7442 10.7311 39.2982 11.0634 39.6305L11.1742 39.7413L24.9116 26.0039V25.7823L10.9527 12.0449Z" fill="url(#paint0_linear_2_23903)"/>
<path id="Vector_6" d="M29.343 30.657L24.8008 26.1148V25.7824L29.343 21.2402L29.4538 21.351L34.8823 24.453C36.4333 25.3393 36.4333 26.7795 34.8823 27.6658L29.343 30.657Z" fill="url(#paint1_linear_2_23903)"/>
<path id="Vector_7" d="M29.4538 30.5456L24.8008 25.8926L10.9526 39.7408C11.5066 40.2947 12.2821 40.2947 13.2791 39.8516L29.4538 30.5456Z" fill="url(#paint2_linear_2_23903)"/>
<path id="Vector_8" d="M29.4538 21.24L13.2791 12.0448C12.2821 11.4909 11.5066 11.6017 10.9526 12.1556L24.8008 25.893L29.4538 21.24Z" fill="url(#paint3_linear_2_23903)"/>
<path id="Vector_9" opacity="0.2" d="M29.343 30.4355L13.2791 39.52C12.3928 40.0739 11.6174 39.9631 11.0634 39.52L10.9526 39.6307L11.0634 39.7415C11.6174 40.1847 12.3928 40.2955 13.2791 39.7415L29.343 30.4355Z" fill="black"/>
<path id="Vector_10" opacity="0.12" d="M10.9527 39.5192C10.6203 39.1868 10.5095 38.6329 10.5095 37.9682V38.079C10.5095 38.7437 10.7311 39.2976 11.0634 39.63V39.5192H10.9527ZM34.8823 27.3328L29.3431 30.4348L29.4538 30.5456L34.8823 27.4436C35.6578 27.0004 35.9902 26.4465 35.9902 25.8926C35.9902 26.4465 35.547 26.8896 34.8823 27.3328Z" fill="black"/>
<path id="Vector_11" opacity="0.25" d="M13.2792 12.1559L34.8823 24.4531C35.547 24.8963 35.9902 25.3394 35.9902 25.8933C35.9902 25.3394 35.6578 24.7855 34.8823 24.3424L13.2792 12.0452C11.7282 11.1589 10.5095 11.8236 10.5095 13.5962V13.7069C10.5095 12.0452 11.7282 11.2697 13.2792 12.1559Z" fill="white"/>
</g>
</g>
<defs>
<linearGradient id="paint0_linear_2_23903" x1="23.5822" y1="13.3854" x2="4.98908" y2="31.9775" gradientUnits="userSpaceOnUse">
<stop stop-color="#00A0FF"/>
<stop offset="0.007" stop-color="#00A1FF"/>
<stop offset="0.26" stop-color="#00BEFF"/>
<stop offset="0.512" stop-color="#00D2FF"/>
<stop offset="0.76" stop-color="#00DFFF"/>
<stop offset="1" stop-color="#00E3FF"/>
</linearGradient>
<linearGradient id="paint1_linear_2_23903" x1="36.9141" y1="25.8943" x2="10.1073" y2="25.8943" gradientUnits="userSpaceOnUse">
<stop stop-color="#FFE000"/>
<stop offset="0.409" stop-color="#FFBD00"/>
<stop offset="0.775" stop-color="#FFA500"/>
<stop offset="1" stop-color="#FF9C00"/>
</linearGradient>
<linearGradient id="paint2_linear_2_23903" x1="26.9357" y1="28.4362" x2="1.7231" y2="53.6488" gradientUnits="userSpaceOnUse">
<stop stop-color="#FF3A44"/>
<stop offset="1" stop-color="#C31162"/>
</linearGradient>
<linearGradient id="paint3_linear_2_23903" x1="7.51496" y1="3.93091" x2="18.7741" y2="15.19" gradientUnits="userSpaceOnUse">
<stop stop-color="#32A071"/>
<stop offset="0.069" stop-color="#2DA771"/>
<stop offset="0.476" stop-color="#15CF74"/>
<stop offset="0.801" stop-color="#06E775"/>
<stop offset="1" stop-color="#00F076"/>
</linearGradient>
<clipPath id="clip0_2_23903">
<rect width="148.165" height="51.3639" fill="white" transform="translate(0.0578613 0.274414)"/>
</clipPath>
</defs>
</svg>
