<svg width="40" height="105" viewBox="0 0 40 105" fill="none" xmlns="http://www.w3.org/2000/svg">
<g id="Group">
<path id="Vector" d="M15.0051 59.6234C15.0051 59.6234 15.0051 59.6234 15.1249 59.6234C15.3645 59.6234 15.604 59.6234 15.7238 59.4199C15.7238 59.4199 17.2811 57.2826 16.5624 55.6543C15.7238 54.0259 12.9686 53.5171 12.8488 53.5171C12.6093 53.5171 12.3697 53.5171 12.1301 53.7206C12.1301 53.7206 10.5728 55.8578 11.2916 57.4862C12.1301 59.1145 14.8853 59.6234 15.0051 59.6234ZM12.9686 54.6366C13.6874 54.8401 14.8853 55.2472 15.2446 56.0614C15.604 56.7738 15.2447 57.8933 14.7655 58.4021C14.0468 58.1986 12.8488 57.6897 12.4895 56.9773C12.1301 56.2649 12.4895 55.2472 12.9686 54.6366Z" fill="white"/>
<path id="Vector_2" d="M4.70313 65.7287C5.0625 65.8304 5.54166 65.9322 5.90104 65.9322C7.45831 65.9322 9.01559 65.118 9.01559 65.0163C9.25517 64.9145 9.37496 64.711 9.25517 64.4056C9.25517 64.4056 8.65623 61.9631 6.73958 61.2507C4.82294 60.5383 2.42711 61.8613 2.30732 61.9631C2.06774 62.0649 1.94796 62.2684 2.06775 62.5737C2.06775 62.5737 2.66671 65.0163 4.58335 65.7287H4.70313ZM6.38021 62.3702C7.21874 62.6755 7.81769 63.6932 8.05727 64.3039C7.33852 64.6092 6.14062 65.0163 5.30208 64.7109C4.46355 64.4056 3.86461 63.3879 3.62503 62.7773C4.22398 62.472 5.54168 62.0649 6.38021 62.3702Z" fill="white"/>
<path id="Vector_3" d="M37.046 62.0653C37.046 62.0653 34.5304 60.7423 32.6137 61.3529C30.6971 62.0653 30.0981 64.4061 30.0981 64.5078C30.0981 64.7114 30.0981 64.9149 30.3377 65.1185C30.3377 65.1185 31.895 66.0344 33.4523 66.0344C35.0095 66.0344 34.2908 66.0344 34.6502 65.8309C36.5668 65.1185 37.1658 62.7777 37.1658 62.6759C37.1658 62.4724 37.1658 62.2688 36.9262 62.0653H37.046ZM34.2908 64.7114C33.4523 65.0167 32.2544 64.7114 31.5356 64.3043C31.7752 63.6936 32.2544 62.6759 33.2127 62.3706C34.0512 62.0653 35.3689 62.3706 35.9679 62.7777C35.7283 63.3883 35.1293 64.4061 34.2908 64.7114Z" fill="white"/>
<path id="Vector_4" d="M26.6236 53.516C26.6236 53.516 23.7487 54.0249 22.9101 55.6532C22.0716 57.2816 23.6289 59.317 23.7487 59.4188C23.8685 59.6223 24.108 59.6223 24.3476 59.6223C24.5872 59.6223 24.3476 59.6223 24.4674 59.6223C24.4674 59.6223 27.3424 59.1135 28.1809 57.4851C29.0194 55.8568 27.4622 53.8213 27.3424 53.7195C27.2226 53.516 26.983 53.4142 26.6236 53.516ZM26.8632 57.078C26.5038 57.7904 25.3059 58.2993 24.5872 58.5028C24.2278 57.994 23.7487 56.8745 24.108 56.1621C24.4674 55.4497 25.6653 54.9408 26.3841 54.7373C26.7434 55.2461 27.2226 56.3656 26.8632 57.078Z" fill="white"/>
<path id="Vector_5" d="M36.2073 81.6049C40.5197 70.9188 40.5197 62.0647 36.2073 51.3787C37.7646 50.9716 38.8427 49.8521 38.9625 48.4273C38.9625 47.5113 38.7229 46.4936 37.8844 45.883C37.1656 45.1706 36.0875 44.7635 34.8896 44.7635H33.9313C35.0094 43.644 36.3271 41.6086 35.6083 38.6572C34.2906 33.2633 25.3064 29.803 21.5929 28.6835C21.9522 28.2764 22.3116 27.8694 22.3116 27.2587C22.3116 26.3428 21.5929 25.6304 20.6345 25.3251V1.20515C20.6345 0.899833 20.395 0.696289 20.0356 0.696289C19.6762 0.696289 19.4366 0.899833 19.4366 1.20515V25.3251C18.4783 25.5286 17.7596 26.3428 17.7596 27.2587C17.7596 28.1747 17.9991 28.2764 18.4783 28.6835C14.8846 29.9048 5.90032 33.5686 4.46283 38.6572C3.50451 41.6086 4.942 43.7458 6.13991 44.8653H5.06178C3.98367 44.8653 2.90556 45.2723 2.06702 45.9847C1.34828 46.6971 0.869126 47.6131 0.988917 48.529C1.10871 49.9538 2.3066 51.0733 3.86388 51.4804C-0.688156 62.37 -0.807947 70.9189 3.86388 81.7067C2.42639 82.1138 1.22849 83.2332 1.1087 84.658C1.1087 85.574 1.34829 86.5917 2.18682 87.2023C2.90556 87.9147 3.98368 88.3218 5.18158 88.3218H6.13991C5.06179 89.4413 3.74409 91.4768 4.46283 94.4281C6.02011 101.043 19.4366 104.707 20.0356 104.911C20.0356 104.911 20.1554 104.911 20.2752 104.911C20.395 104.911 20.395 104.911 20.5148 104.911C21.1137 104.707 34.1709 100.636 35.9677 94.5299C36.926 91.5785 35.4886 89.4413 34.2907 88.3218H35.3688C36.4469 88.3218 37.525 87.9147 38.3635 87.2023C39.0823 86.4899 39.5614 85.574 39.4416 84.658C39.3218 83.335 38.2437 82.2155 36.8062 81.7067L36.2073 81.6049ZM1.46807 65.7285C2.06702 65.932 2.54619 66.2373 2.78577 66.6444C2.78577 66.848 3.14514 66.9498 3.38472 66.9498L5.54096 68.5781L3.38472 70.2064C3.14514 70.2064 2.90556 70.3082 2.78577 70.5118C2.54619 70.9189 2.30661 71.1224 1.82745 71.3259C1.46807 69.3923 1.34828 67.4586 1.46807 65.6267V65.7285ZM3.7441 54.5336L4.942 54.8389C5.06179 54.8389 5.18157 54.8389 5.30136 54.8389H5.54096C5.78054 54.7371 6.25969 54.6353 6.61906 54.5336C7.81697 54.33 8.89508 54.7371 9.37425 55.5513C9.61383 56.0602 9.73362 56.4672 9.37425 56.9761C9.37425 57.1796 9.37423 57.3832 9.49403 57.5867V60.0293H6.73886C6.49928 59.7239 6.25969 59.7239 6.02011 59.8257C5.42116 60.0293 4.942 59.9275 4.34305 59.8257C3.38473 59.4186 2.90557 58.5027 3.14515 57.485C3.14515 57.1796 3.26493 56.8743 3.38472 56.569V56.3655C3.38472 56.2637 3.38472 56.1619 3.38472 56.0602L3.14515 55.5513C3.14515 55.246 3.38471 54.8389 3.5045 54.5336H3.7441ZM36.3271 55.4495L36.0875 55.9584C36.0875 56.0602 36.0875 56.1619 36.0875 56.2637V56.4672C36.2073 56.6708 36.3271 57.0779 36.4469 57.3832C36.6864 58.4009 36.2073 59.3169 35.249 59.7239C34.65 59.9275 34.1709 60.0293 33.5719 59.7239C33.3323 59.7239 33.0927 59.7239 32.8532 59.8257H29.9782V57.485H30.098C30.3376 57.2814 30.3376 57.0779 30.2178 56.8743C29.9782 56.3655 30.098 55.9584 30.2178 55.4495C30.6969 54.6354 31.775 54.2283 32.9729 54.4318C33.3323 54.4318 33.6917 54.5336 34.0511 54.6353H34.2907C34.4104 54.6353 34.5302 54.6353 34.65 54.6353L35.8479 54.2283C35.8479 54.5336 36.0875 54.8389 36.2073 55.1442L36.3271 55.4495ZM37.8844 71.5295C37.4052 71.3259 37.0458 71.1224 36.926 70.7153C36.926 70.5118 36.5667 70.41 36.3271 70.41L34.1709 68.7816L36.3271 67.1533C36.5667 67.1533 36.8062 67.0515 36.926 66.848C37.1656 66.3391 37.6448 66.0338 38.1239 65.932C38.1239 67.8657 38.1239 69.6976 37.7646 71.6312L37.8844 71.5295ZM10.8117 80.2818C10.8117 80.2818 10.8117 80.0783 10.9315 79.9765V76.7198C11.0513 76.7198 11.0513 76.7198 11.0513 76.7198L16.6814 74.8879L19.1971 79.773L17.4002 81.4013H16.3221C16.3221 81.4013 16.3221 81.2996 16.3221 81.1978C17.1606 79.5695 15.6033 77.534 15.4835 77.4322C15.3638 77.2287 15.1242 77.1269 14.7648 77.2287C14.7648 77.2287 11.8898 77.7376 11.0513 79.3659C10.6919 79.9765 10.8117 80.6889 11.0513 81.2996H10.5721C10.5721 80.8925 10.5721 80.5872 10.5721 80.1801L10.8117 80.2818ZM16.6814 66.3391C17.0408 66.3391 17.2804 66.1356 17.2804 65.8302L17.52 63.7948L19.4366 65.1179C19.5564 65.1179 19.6762 65.2196 19.796 65.2196C19.9158 65.2196 20.0356 65.2196 20.1554 65.1179L22.072 63.7948L22.3116 65.8302C22.3116 66.1356 22.5512 66.3391 22.9106 66.3391L25.3064 66.5427L23.7491 68.171C23.5095 68.3745 23.5095 68.6799 23.7491 68.8834L25.3064 70.5118L22.9106 70.7153C22.5512 70.7153 22.3116 70.9188 22.3116 71.2242L22.072 73.2596L20.1554 71.9366C19.9158 71.733 19.5564 71.733 19.3169 71.9366L17.4002 73.2596L17.1606 71.2242C17.1606 70.9188 16.921 70.7153 16.5617 70.7153L14.1659 70.5118L15.7231 68.8834C15.9627 68.6799 15.9627 68.3745 15.7231 68.171L14.1659 66.5427L16.5617 66.3391H16.6814ZM17.52 54.2283C16.921 54.0247 16.5617 53.6176 16.4419 53.2105C16.3221 52.8035 16.3221 52.2946 16.4419 51.8875H23.1501C23.3897 52.2946 23.3897 52.8035 23.1501 53.2105C22.9106 53.7194 22.5512 54.0247 22.072 54.33C21.8324 54.33 21.7127 54.6354 21.7127 54.8389L19.796 56.6708L17.8794 54.8389C17.8794 54.6354 17.7596 54.4318 17.52 54.33V54.2283ZM19.796 58.808L21.7127 62.5736L19.796 63.9984L17.8794 62.5736L19.796 58.808ZM12.6086 79.8748C12.968 79.1624 14.1659 78.6535 14.8846 78.45C15.244 79.0606 15.7231 80.0783 15.3638 80.7907C15.3638 80.9943 15.1242 81.1978 14.8846 81.4013H12.7284C12.4888 80.8925 12.4888 80.2819 12.7284 79.8748H12.6086ZM19.796 78.1447L17.8794 74.3791L19.796 72.9543L21.7127 74.3791L19.796 78.1447ZM19.796 80.8925L20.395 81.4013H19.1971L19.796 80.8925ZM24.1085 80.8925C23.7491 80.1801 24.1085 79.1624 24.5876 78.5517C25.3064 78.7553 26.5043 79.1624 26.8636 79.9765C27.1032 80.4854 26.9834 81.096 26.8636 81.6049H24.7074C24.4678 81.4013 24.2283 81.1978 24.1085 80.9943V80.8925ZM28.6605 80.0783C28.6605 80.1801 28.6605 80.2819 28.6605 80.3836C28.5407 80.7907 28.6605 81.1978 28.6605 81.5031H28.0615C28.3011 80.8925 28.3011 80.1801 28.0615 79.4677C27.223 77.8393 24.4678 77.3305 24.348 77.3305C24.1085 77.3305 23.8689 77.3305 23.6293 77.534C23.6293 77.534 22.072 79.6712 22.7908 81.2996C22.7908 81.2996 22.7908 81.4014 22.7908 81.5031H21.8324L20.0356 79.773L22.5512 74.8879L28.3011 76.8216V80.0783H28.6605ZM23.2699 73.8702L23.5095 71.733L26.0251 71.5295L27.822 75.3968L23.2699 73.8702ZM26.6241 70.2064L24.947 68.5781L26.6241 66.9498L31.0563 68.5781L26.6241 70.2064ZM26.0251 65.5249L23.5095 65.3214L23.2699 63.1842L27.822 61.6576L26.0251 65.5249ZM16.0825 65.3214L13.5669 65.5249L11.7701 61.6576L16.3221 63.1842L16.0825 65.3214ZM12.968 66.848L14.645 68.4763L12.968 70.1047L8.53572 68.4763L12.968 66.848ZM13.5669 71.5295L16.0825 71.733L16.3221 73.8702L11.7701 75.3968L13.5669 71.5295ZM30.2178 81.5031C30.098 81.096 30.2178 80.7907 30.2178 80.3836C30.2178 80.1801 30.2178 79.9765 30.098 79.773V77.3305H32.8532C33.0927 77.6358 33.3323 77.6358 33.5719 77.534C34.1709 77.3305 34.65 77.4322 35.249 77.534C35.6083 77.7376 35.9677 77.9411 36.2073 78.3482C35.8479 79.3659 35.4886 80.3836 35.1292 81.4013H30.3376L30.2178 81.5031ZM35.8479 76.7198C35.1292 76.4145 34.2906 76.3127 33.4521 76.4145C33.4521 76.4145 33.2125 76.4145 33.0928 76.4145H29.499C29.499 76.211 29.499 76.211 29.499 76.1092L27.223 71.1224L32.6136 69.087L35.4886 71.3259C35.4886 71.3259 35.7281 71.4277 35.8479 71.4277C36.3271 72.1401 37.0458 72.4454 37.6448 72.649C37.6448 73.1578 37.4052 73.6667 37.2854 74.1755C37.1656 73.7685 36.5667 71.733 34.7698 71.1224C32.8532 70.41 30.4574 71.733 30.3376 71.8348C30.098 71.9366 29.9782 72.1401 30.098 72.4454C30.098 72.4454 30.6969 74.888 32.6136 75.6004C32.9729 75.7021 33.4521 75.8039 33.8115 75.8039C35.3688 75.8039 36.926 74.9897 36.926 74.8879C36.6865 75.7021 36.5667 76.4145 36.3271 77.2287C36.0875 77.0252 35.8479 76.9234 35.6083 76.8216L35.8479 76.7198ZM35.9677 74.1755C35.249 74.4809 34.0511 74.888 33.2125 74.5826C32.374 74.2773 31.7751 73.2596 31.5355 72.649C32.1344 72.3436 33.4521 71.9366 34.2907 72.2419C35.1292 72.5472 35.7281 73.5649 35.9677 74.1755ZM37.7646 64.8125C36.926 65.0161 36.3271 65.4232 35.8479 66.0338C35.7281 66.0338 35.6083 66.0338 35.4886 66.1356L33.0928 68.0692L27.3428 65.932L29.499 61.3523H33.2125C33.3323 61.2505 33.4521 61.1487 33.5719 61.1487C34.4104 61.3523 35.1292 61.1488 35.9677 60.8434C36.6865 60.5381 37.2854 60.0293 37.525 59.4186C37.8844 61.2505 38.2437 62.9806 38.3635 64.7108C38.2437 64.7108 38.1239 64.7108 37.8844 64.7108L37.7646 64.8125ZM34.5302 53.923C34.1709 53.923 33.8115 53.7194 33.3323 53.7194C31.5355 53.5159 29.9782 54.1265 29.2594 55.3478C28.9001 55.9584 28.7803 56.6708 29.0199 57.2814C29.0199 57.2814 29.0199 57.485 28.9001 57.5867V60.3346L23.0303 62.2682L20.7543 57.6885L23.1501 55.5513C23.1501 55.5513 23.2699 55.3478 23.2699 55.246C23.9887 54.9407 24.4678 54.33 24.7074 53.6176C24.947 53.007 24.947 52.4981 24.7074 51.8875H35.1292C35.3688 52.3964 35.6083 53.007 35.8479 53.5159L34.7698 53.8212L34.5302 53.923ZM4.82221 51.9893H15.1242C15.0044 52.4981 15.0044 53.007 15.1242 53.6176C15.3638 54.33 15.8429 54.8389 16.5617 55.1442C16.5617 55.246 16.5617 55.3478 16.6814 55.4495L18.9575 57.5867L16.5617 62.1665L10.9315 60.3346V57.5867C10.8117 57.485 10.6919 57.3832 10.6919 57.2814C10.9315 56.569 10.6919 55.9584 10.3326 55.246C9.61383 54.0247 7.93675 53.4141 6.25969 53.6176C5.78053 53.6176 5.42115 53.8212 5.06178 53.8212L4.10346 53.5159C4.34304 53.007 4.46283 52.3964 4.70241 51.8875L4.82221 51.9893ZM3.86388 60.8434C4.58262 61.1488 5.42115 61.2505 6.25969 61.1487C6.25969 61.1487 6.49927 61.1487 6.61906 61.1487H10.2128L12.369 65.8302L6.61906 67.9675L4.22325 66.1356C4.22325 66.1356 3.98367 66.0338 3.86388 66.0338C3.50451 65.4232 2.78578 65.0161 1.94724 64.8125C1.82745 64.8125 1.70765 64.8125 1.46807 64.8125C1.46807 63.0824 1.82744 61.3523 2.3066 59.5204C2.66597 60.131 3.14514 60.6399 3.86388 60.9452V60.8434ZM6.37949 74.5826C5.54095 74.888 4.22325 74.5826 3.6243 74.1755C3.86388 73.5649 4.46283 72.5472 5.30136 72.2419C6.13989 71.9366 7.3378 72.2419 8.05654 72.649C7.81696 73.2596 7.33781 74.2773 6.37949 74.5826ZM5.66074 75.8039C6.02011 75.8039 6.49927 75.8039 6.85864 75.6004C8.77529 74.888 9.37425 72.5472 9.37425 72.4454C9.37425 72.2419 9.37425 72.0383 9.13467 71.8348C9.13467 71.8348 6.61906 70.5118 4.70241 71.1224C3.14513 71.6312 2.54618 73.1578 2.3066 73.8702C2.3066 73.4631 2.06702 73.0561 2.06702 72.5472C2.78577 72.3437 3.38472 71.9366 3.86388 71.3259C3.98367 71.3259 4.10346 71.3259 4.22325 71.2242L7.09822 68.9852L12.369 70.9188L10.093 75.9057C10.093 75.9057 10.093 75.9057 10.093 76.0074H6.73886C6.61907 76.1092 6.49928 76.211 6.37949 76.211C5.66074 76.0074 4.82221 76.211 3.98368 76.5163C3.7441 76.6181 3.50451 76.8216 3.26493 76.9234C3.02535 76.211 2.78577 75.4986 2.66598 74.7862C3.02535 74.9897 4.34305 75.6004 5.78053 75.6004L5.66074 75.8039ZM4.46283 77.7376C4.8222 77.6358 5.06179 77.534 5.42116 77.534C5.78053 77.534 5.90033 77.534 6.13991 77.6358C6.37949 77.6358 6.61906 77.6358 6.85864 77.534H9.73362V79.8748H9.61382C9.37424 80.0783 9.37423 80.2819 9.49403 80.4854C9.61382 80.7907 9.61382 81.1978 9.49403 81.5031H4.70241C4.22325 80.4854 3.86388 79.4677 3.5045 78.45C3.74409 78.1446 3.98368 77.9411 4.34305 77.7376H4.46283ZM5.18158 39.6749C5.18158 39.6749 5.30137 39.6749 5.42116 39.6749C5.66074 39.6749 5.90033 39.6749 6.13991 39.7767C6.37949 39.7767 6.61906 39.7767 6.85864 39.6749H9.73362V42.0157H9.61382C9.37424 42.2192 9.37423 42.4227 9.49403 42.6263C9.73361 43.1351 9.73361 43.5422 9.49403 44.0511C9.25444 44.4582 8.89508 44.7635 8.41592 44.8653H7.81697C7.09822 44.4582 4.942 42.7281 5.42116 39.6749H5.18158ZM5.78053 37.9448C6.1399 37.9448 6.49927 37.9448 6.85864 37.7412C8.77529 37.0288 9.37425 34.6881 9.37425 34.5863C9.37425 34.5863 9.37425 34.3828 9.37425 34.281C10.093 33.7721 10.6919 33.365 11.4107 32.958L12.1294 33.2633L9.8534 38.2501C9.8534 38.2501 9.8534 38.2501 9.8534 38.3519H6.49926C6.37947 38.4536 6.2597 38.5554 6.13991 38.5554C5.90033 38.5554 5.66075 38.5554 5.54096 38.5554C5.54096 38.3519 5.66074 38.1483 5.78053 37.9448ZM19.796 29.2942C20.2752 29.3959 21.7127 29.9048 23.5095 30.5154C23.5095 30.6172 23.5095 30.8207 23.6293 30.9225L25.1866 32.5509L22.7908 32.7544C22.4314 32.7544 22.1918 32.958 22.1918 33.2633L21.9522 35.2987L20.0356 33.9757C19.796 33.7721 19.4366 33.7721 19.1971 33.9757L17.2804 35.2987L17.0408 33.2633C17.0408 32.958 16.8012 32.7544 16.4419 32.7544L14.0461 32.5509L15.6033 30.9225C15.6033 30.9225 15.6033 30.8207 15.6033 30.719C17.52 29.9048 18.9575 29.3959 19.5564 29.1924L19.796 29.2942ZM33.2125 36.7235C33.2125 36.7235 33.2125 36.7235 33.2125 36.6217C33.2125 36.6217 33.2125 36.6217 33.3323 36.7235H33.2125ZM32.6136 37.7412C32.9729 37.843 33.4521 37.9448 33.8115 37.9448C33.8115 38.1483 33.9313 38.3519 34.0511 38.5554C33.8115 38.5554 33.5719 38.5554 33.3323 38.5554C33.3323 38.5554 33.0927 38.5554 32.9729 38.5554H29.3792C29.3792 38.3519 29.3792 38.3519 29.3792 38.2501L27.1032 33.2633L28.3011 32.8562C29.0199 33.2633 29.6188 33.6704 30.2178 34.0774C29.9782 34.1792 29.8584 34.3828 29.9782 34.5863C29.9782 34.5863 30.5772 37.0288 32.4938 37.7412H32.6136ZM32.0146 44.8653H31.4157C30.9365 44.6617 30.5771 44.3564 30.3376 43.9493C30.098 43.4404 29.9782 43.0334 30.3376 42.5245C30.3376 42.321 30.3376 42.1174 30.2178 41.9139V39.4714H32.9729C33.2125 39.7767 33.4521 39.7767 33.6917 39.6749C34.0511 39.6749 34.2906 39.5731 34.65 39.6749C35.0094 42.7281 32.9729 44.4582 32.2542 44.8653H32.0146ZM24.1085 43.0334C23.7491 42.321 24.1085 41.3032 24.5876 40.6926C25.3064 40.8962 26.5043 41.3032 26.8636 42.1174C27.223 42.8298 26.8636 43.8475 26.3845 44.4582C25.6657 44.2546 24.4678 43.8475 24.1085 43.0334ZM28.0615 41.6086C27.223 39.9802 24.4678 39.4714 24.348 39.4714C24.1085 39.4714 23.8689 39.4714 23.6293 39.6749C23.6293 39.6749 22.072 41.8121 22.7908 43.4404C23.1501 44.0511 23.6293 44.5599 24.2282 44.8653H23.2699C23.1501 44.7635 23.0303 44.6617 22.7908 44.5599C22.7908 44.4582 22.7908 44.3564 22.671 44.2546L20.1554 41.9139L22.671 37.0288L28.4209 38.9625V42.2192C28.5407 42.321 28.6605 42.4227 28.6605 42.5245C28.4209 43.3387 28.6605 44.0511 29.0199 44.4582C29.0199 44.5599 29.1397 44.6617 29.2594 44.7635H27.4626C27.9417 44.0511 28.4209 42.7281 27.9418 41.5068L28.0615 41.6086ZM12.6086 42.0157C12.968 41.3032 14.1659 40.7944 14.8846 40.5908C15.244 41.0997 15.7231 42.2192 15.3638 42.9316C15.0044 43.644 13.8065 44.1529 13.0877 44.3564C12.7284 43.7458 12.2492 42.7281 12.6086 42.0157ZM16.5617 43.4404C17.4002 41.8121 15.8429 39.7767 15.7231 39.6749C15.6034 39.4714 15.3638 39.3696 15.0044 39.4714C15.0044 39.4714 12.1294 39.9802 11.2909 41.6086C10.6919 42.7281 11.2909 44.1529 11.7701 44.8653H10.093C10.093 44.7635 10.3326 44.6617 10.3326 44.5599C10.6919 43.9493 10.8117 43.2369 10.5721 42.6263C10.5721 42.6263 10.5721 42.4227 10.6919 42.321V39.0643C10.8117 39.0643 10.8117 39.0643 10.8117 39.0643L16.4419 37.2324L18.9575 42.1174L16.4419 44.4582C16.4419 44.4582 16.3221 44.6617 16.3221 44.7635C16.2023 44.7635 15.9627 44.967 15.8429 45.0688H14.7648C15.3638 44.7635 15.9627 44.2546 16.2023 43.644L16.5617 43.4404ZM13.5669 33.6704L16.0825 33.8739L16.3221 36.0111L11.7701 37.5377L13.5669 33.6704ZM19.796 40.3873L17.8794 36.6217L19.796 35.1969L21.7127 36.6217L19.796 40.3873ZM19.796 43.1351L21.7127 44.8653H17.8794L19.796 43.1351ZM26.0251 33.6704L27.822 37.5377L23.2699 36.0111L23.5095 33.8739L26.0251 33.6704ZM19.3169 26.5463C19.3169 26.7499 19.6762 26.8516 19.9158 26.8516C20.1554 26.8516 20.395 26.7499 20.5148 26.5463C20.7543 26.7499 20.9939 26.9534 20.9939 27.2587C20.9939 27.7676 20.5148 28.1747 19.9158 28.1747C19.3169 28.1747 18.8377 27.7676 18.8377 27.2587C18.8377 26.7499 19.0773 26.6481 19.3169 26.5463ZM2.06702 48.4273C2.06702 47.8166 2.30661 47.206 2.78577 46.6972C3.26493 46.1883 3.98367 45.9847 4.82221 45.9847H7.45759H34.7698C35.4886 45.9847 36.2073 46.2901 36.8062 46.6972C37.2854 47.206 37.525 47.8166 37.525 48.4273C37.525 49.6485 36.2073 50.5645 34.7698 50.5645H4.58263C3.14514 50.5645 1.94724 49.6485 1.82745 48.4273H2.06702ZM34.4104 93.5122C34.0511 93.5122 33.8115 93.5122 33.4521 93.5122C33.2125 93.5122 32.973 93.5122 32.7334 93.614H29.8584V91.2732H29.9782C30.2178 91.0697 30.2178 90.8661 30.098 90.6626C29.8584 90.1537 29.9782 89.7466 30.098 89.2378C30.3376 88.8307 30.6969 88.5254 31.1761 88.4236H31.775C32.4938 88.8307 34.7698 90.5608 34.1709 93.614L34.4104 93.5122ZM33.8115 95.2423C33.4521 95.2423 33.0927 95.2423 32.7334 95.4459C30.8167 96.1583 30.2178 98.499 30.2178 98.6008C30.2178 98.6008 30.2178 98.8043 30.2178 98.9061C29.499 99.415 28.9001 99.822 28.1813 100.229L27.4626 99.9238L29.7386 94.937C29.7386 94.937 29.7386 94.937 29.7386 94.8352H33.0928C33.2125 94.7335 33.3323 94.6317 33.4521 94.6317C33.6917 94.6317 33.9313 94.6317 34.0511 94.6317C34.0511 94.8352 33.9313 95.0388 33.8115 95.2423ZM19.796 103.893C19.3168 103.791 17.8794 103.282 16.0825 102.672C16.0825 102.57 16.0825 102.366 15.9627 102.265L14.4054 100.636L16.8012 100.433C17.1606 100.433 17.4002 100.229 17.4002 99.9238L17.6398 97.8884L19.5564 99.2114C19.6762 99.2114 19.796 99.3132 19.9158 99.3132C20.0356 99.3132 20.1554 99.3132 20.2752 99.2114L22.1918 97.8884L22.4314 99.9238C22.4314 100.229 22.671 100.433 23.0303 100.433L25.4262 100.636L23.8689 102.265C23.8689 102.265 23.8689 102.366 23.8689 102.468C21.9522 103.282 20.5148 103.791 19.9158 103.995L19.796 103.893ZM12.6086 101.043L12.968 100.84L13.5669 101.552C13.2075 101.349 12.8482 101.247 12.4888 101.043H12.6086ZM6.97844 95.4459C6.49928 95.3441 6.1399 95.2423 5.66074 95.2423C5.66074 95.0388 5.54095 94.8352 5.42116 94.6317C5.66074 94.6317 5.90033 94.6317 6.13991 94.6317C6.13991 94.6317 6.37947 94.6317 6.49926 94.6317H10.093C10.093 94.8352 10.093 94.8352 10.093 94.937L12.369 99.9238L11.1711 100.331C10.4524 99.9238 9.8534 99.5167 9.25445 99.1096C9.49403 99.0079 9.61382 98.8043 9.49403 98.6008C9.49403 98.6008 8.89508 96.1583 6.97844 95.4459ZM8.05654 98.1937C7.45759 97.6848 6.85865 97.0742 6.37949 96.4636C7.21802 96.7689 7.69718 97.5831 7.93676 98.1937H8.05654ZM7.57739 88.4236H8.17634C8.6555 88.6271 9.01487 88.9325 9.25445 89.2378C9.49403 89.7466 9.61382 90.1537 9.25445 90.6626C9.25445 90.8661 9.25445 91.0697 9.37425 91.2732V93.7157H6.61906C6.37948 93.4104 6.13989 93.4104 5.90031 93.5122C5.54094 93.5122 5.30138 93.614 4.942 93.5122C4.58263 90.459 6.61907 88.8307 7.33781 88.3218L7.57739 88.4236ZM15.4835 90.2555C15.8429 90.9679 15.4836 91.9856 15.0044 92.5962C14.2856 92.3927 13.0878 91.9856 12.7284 91.1714C12.369 90.459 12.7284 89.4413 13.2075 88.8307C13.9263 89.0342 15.1242 89.4413 15.4835 90.2555ZM11.5305 91.6803C12.369 93.3087 15.1242 93.8175 15.244 93.8175C15.244 93.8175 15.244 93.8175 15.3638 93.8175C15.6033 93.8175 15.8429 93.8175 15.9627 93.614C15.9627 93.614 17.52 91.4768 16.8012 89.8484C16.4419 89.2378 15.9627 88.7289 15.3638 88.4236H16.3221C16.4419 88.5254 16.5617 88.6271 16.8012 88.7289C16.8012 88.8307 16.8013 88.9325 16.921 89.0342L19.4366 91.375L16.921 96.26L11.1711 94.3264V91.0697C11.0513 90.9679 10.9315 90.8661 10.9315 90.7644C11.1711 90.0519 10.9315 89.4413 10.5721 88.7289C10.5721 88.6271 10.4524 88.5254 10.3326 88.4236H12.1294C11.6503 89.136 11.1711 90.459 11.6503 91.6803H11.5305ZM24.5876 88.4236C23.9887 88.7289 23.3897 89.2378 23.1501 89.8484C22.3116 91.4768 23.8689 93.5122 23.9887 93.614C24.1085 93.8175 24.348 93.8175 24.5876 93.8175C24.8272 93.8175 24.5876 93.8175 24.7074 93.8175C24.7074 93.8175 27.5824 93.3087 28.4209 91.6803C29.0199 90.5608 28.4209 89.136 27.9418 88.4236H29.6188C29.6188 88.5254 29.3792 88.6271 29.3792 88.7289C29.0199 89.3395 28.9001 90.052 29.1397 90.6626C29.1397 90.6626 29.1397 90.8661 29.0199 90.9679V94.2246C28.9001 94.2246 28.9001 94.2246 28.9001 94.2246L23.2699 96.0565L20.7543 91.1714L23.2699 88.8307C23.2699 88.8307 23.3897 88.6271 23.3897 88.5254C23.5095 88.5254 23.7491 88.3218 23.8689 88.2201H24.947L24.5876 88.4236ZM27.1032 91.1714C26.7439 91.8839 25.5459 92.3927 24.8272 92.5962C24.4678 91.9856 23.9887 90.9679 24.348 90.2555C24.7074 89.5431 25.9053 89.0342 26.6241 88.8307C26.9834 89.3396 27.4626 90.459 27.1032 91.1714ZM26.2647 99.5167L23.7491 99.3132L23.5095 97.176L28.0615 95.6494L26.2647 99.5167ZM20.0356 92.7998L21.9522 96.5653L20.0356 97.9902L18.1189 96.5653L20.0356 92.7998ZM20.0356 90.0519L18.1189 88.3218H21.9522L20.0356 90.0519ZM13.8065 99.5167L12.0096 95.6494L16.5617 97.176L16.3221 99.3132L13.8065 99.5167ZM37.0458 86.4899C36.5667 86.9988 35.8479 87.2023 35.0094 87.2023H4.82221C4.10346 87.2023 3.38472 86.897 2.78577 86.4899C2.18682 86.0828 2.06702 85.3705 2.06702 84.7598C2.06702 83.5386 3.38472 82.6226 4.82221 82.6226H35.0094C36.4469 82.6226 37.6448 83.5386 37.7646 84.7598C37.7646 85.3705 37.525 86.0828 37.0458 86.4899Z" fill="white"/>
</g>
</svg>
