<svg width="81" height="118" viewBox="0 0 81 118" fill="none" xmlns="http://www.w3.org/2000/svg">
<path id="Vector" d="M28.2876 117.055C28.2876 117.055 29.9615 56.3016 37.9372 31.7838L41.9743 42.3196L45.0266 41.3349L43.7466 45.6674C43.7466 45.6674 45.519 51.083 45.6174 54.9231L48.8668 54.4308L46.6021 58.6648L48.0791 59.8463C48.0791 59.8463 48.4729 65.8527 45.6174 71.5637C45.6174 71.5637 53.8885 61.4218 54.2824 49.4091C54.6762 37.4948 47.3898 27.4514 47.3898 27.4514L56.1532 34.7378L58.9102 31.8823L57.5317 36.7071C57.5317 36.7071 62.9473 40.3503 65.5074 44.6827L68.6582 42.4181L66.6889 48.5229C66.6889 48.5229 70.4306 52.56 71.1199 57.7786C71.1199 57.7786 75.4523 45.4705 69.1506 34.4424C62.8488 23.4143 50.4422 21.0511 50.4422 21.0511C50.4422 21.0511 54.7747 19.0818 62.3565 18.9834L63.5381 15.931L65.0151 19.968C65.0151 19.968 72.203 16.7187 80.671 24.3005C80.671 24.3005 75.8462 11.4016 61.1749 9.53074C46.4052 7.65991 42.0727 12.977 42.0727 12.977C42.0727 12.977 36.1648 -8.09451 5.93605 3.91823C5.93605 3.91823 13.9117 4.11517 20.8043 7.06912L25.4321 4.11517L22.7736 8.05377L26.3183 9.9246L30.3554 8.25068L27.9922 11.697L31.34 15.1432C31.34 15.1432 17.5549 7.85681 8.00382 18.9834C-1.54728 30.1099 0.225065 43.5012 0.225065 43.5012C0.225065 43.5012 2.78516 35.624 6.23144 32.5715L7.11762 27.9437L8.00382 31.193C8.00382 31.193 12.7301 24.3005 25.2352 23.9066C25.2352 23.9066 15.3887 28.2391 13.4194 39.7595C11.4501 51.2799 15.4871 59.9448 15.4871 59.9448C15.4871 59.9448 13.9117 49.4091 20.6073 41.9257L19.5242 38.6764L21.6905 39.661L28.3861 34.0485L26.1214 28.9283L29.9615 31.8823L33.6047 30.1099C33.6047 30.1099 17.5549 70.2836 15.881 115.971C15.881 115.971 17.6534 118.728 28.1892 117.055H28.2876Z" fill="#EAEAEA"/>
</svg>
