<svg width="171" height="71" viewBox="0 0 171 71" fill="none" xmlns="http://www.w3.org/2000/svg">
<g id="Layer_1" clip-path="url(#clip0_2003_97)">
<path id="Vector" d="M78.3328 54.749V64.1539C78.3413 64.6658 78.1555 65.162 77.8128 65.5425C77.6394 65.726 77.4287 65.8703 77.1949 65.9657C76.9612 66.0611 76.7097 66.1055 76.4574 66.0957H71.1741L73.3095 70.9309H77.7353C79.3015 70.6157 80.7105 69.7689 81.7238 68.5338C82.737 67.2987 83.2922 65.7514 83.2953 64.1539V45.0786L78.2886 46.9264L78.3328 54.749Z" fill="url(#paint0_linear_2003_97)"/>
<path id="Vector_2" d="M92.9763 57.3216C92.7205 57.3251 92.4668 57.2741 92.2322 57.1721C91.9975 57.07 91.7873 56.9192 91.6154 56.7296C91.4464 56.562 91.3132 56.3618 91.2238 56.1412C91.1344 55.9206 91.0907 55.6841 91.0954 55.4461L91.0124 33.8647L86.0721 35.707V55.3521C86.0684 56.2574 86.2441 57.1544 86.589 57.9914C86.9339 58.8284 87.4412 59.5887 88.0816 60.2286C88.722 60.8685 89.4828 61.3752 90.32 61.7194C91.1573 62.0636 92.0545 62.2386 92.9598 62.2342H95.1727V57.3216H92.9763Z" fill="url(#paint1_linear_2003_97)"/>
<path id="Vector_3" d="M110.359 39.696L106.603 35.9009L102.846 39.696L106.603 43.4856L110.359 39.696Z" fill="#F7931E"/>
<path id="Vector_4" d="M102.846 39.696L99.095 35.9009L95.3386 39.696L99.095 43.4856L102.846 39.696Z" fill="#F7931E"/>
<path id="Vector_5" d="M106.885 57.3215C107.026 56.6822 107.095 56.0289 107.089 55.3741V45.0454L102.155 46.9264V55.3741C102.16 55.6258 102.113 55.8759 102.018 56.109C101.923 56.342 101.781 56.5532 101.601 56.7296C101.43 56.9187 101.221 57.0693 100.987 57.1714C100.754 57.2734 100.501 57.3246 100.246 57.3215H96.0415V62.2563H109.983V57.3215H106.885Z" fill="url(#paint2_linear_2003_97)"/>
<path id="Vector_6" d="M96.0304 57.3213H95.1619V62.2616H96.0304V57.3213Z" fill="url(#paint3_linear_2003_97)"/>
<path id="Vector_7" d="M132.964 57.3218C133.08 56.9733 133.18 56.6358 133.274 56.3149C133.459 55.3882 133.54 54.4437 133.517 53.499C133.517 50.9209 132.698 48.8796 131.066 47.3582C129.531 45.8795 127.477 45.0613 125.346 45.0789H116.721L113.28 50.0579H125.346C125.781 50.0441 126.214 50.1206 126.617 50.2824C127.021 50.4443 127.387 50.6881 127.692 50.9984C128.006 51.3329 128.249 51.7272 128.408 52.1577C128.567 52.5882 128.637 53.0462 128.615 53.5045C128.693 54.5285 128.361 55.5414 127.692 56.3205C127.071 56.9498 126.229 57.3112 125.346 57.3273H110.674V62.2621H136.3V57.3218H132.964Z" fill="url(#paint4_linear_2003_97)"/>
<path id="Vector_8" d="M127.78 39.6236L123.99 35.834L120.267 39.6236L123.99 43.4132L127.78 39.6236Z" fill="#F7931E"/>
<path id="Vector_9" d="M110.674 57.3213H109.977V62.2616H110.674V57.3213Z" fill="url(#paint5_linear_2003_97)"/>
<path id="Vector_10" d="M158.556 57.3217V62.2564H148.991L146.59 62.2232L143.464 57.2442H148.996C149.437 57.2614 149.875 57.1811 150.281 57.0089C150.686 56.8368 151.049 56.5771 151.342 56.2484C151.963 55.5072 152.281 54.5587 152.233 53.5929C152.268 52.6692 151.949 51.767 151.342 51.0702C151.048 50.7422 150.686 50.4833 150.28 50.3121C149.875 50.1409 149.436 50.0616 148.996 50.0799H143.464V57.2442L143.53 62.2232H136.997V57.3217H138.491V45.0787H149.002C150.422 45.0707 151.818 45.4371 153.051 46.1409C154.296 46.8524 155.333 47.8765 156.061 49.1118C156.847 50.4758 157.244 52.0299 157.206 53.6039C157.227 54.877 156.992 56.1413 156.515 57.3217H158.556Z" fill="url(#paint6_linear_2003_97)"/>
<path id="Vector_11" d="M136.997 57.3213H136.3V62.2616H136.997V57.3213Z" fill="url(#paint7_linear_2003_97)"/>
<path id="Vector_12" d="M163.419 55.4406C163.393 55.9366 163.175 56.403 162.81 56.7407C162.642 56.9161 162.441 57.0557 162.217 57.1508C161.994 57.2459 161.753 57.2946 161.51 57.2939H159.248V62.2287H161.51C162.412 62.24 163.306 62.0689 164.14 61.7257C164.974 61.3825 165.73 60.8742 166.362 60.2315C167.015 59.6131 167.532 58.8661 167.881 58.0377C168.231 57.2093 168.405 56.3175 168.392 55.4185V33.8647L163.413 36.0777L163.419 55.4406Z" fill="url(#paint8_linear_2003_97)"/>
<path id="Vector_13" d="M159.253 57.3213H158.556V62.2616H159.253V57.3213Z" fill="url(#paint9_linear_2003_97)"/>
<path id="Vector_14" d="M50.9258 58.3007C48.0325 56.1929 44.8901 54.4558 42.1185 52.1544L41.9691 52.0327C41.2388 51.4131 40.5528 50.8045 39.9166 50.2236C39.2859 50.7769 38.5999 51.4131 37.8697 52.0327L37.7203 52.1544C34.9542 54.4558 31.8063 56.1929 28.9129 58.3007C25.1289 61.0669 22.5176 65.6365 22.9934 70.3943C23.0211 70.6709 23.0598 70.9475 23.1041 71.202C23.8146 67.5648 25.8938 64.339 28.9129 62.1899C31.8063 60.0821 34.9486 58.3173 37.7203 56.0436L37.8697 55.9219C38.5999 55.3022 39.2859 54.6992 39.9166 54.1128C40.5547 54.6992 41.2388 55.3022 41.9691 55.9219L42.1185 56.0436C44.8846 58.345 48.0325 60.0821 50.9258 62.1899C53.9366 64.343 56.0076 67.5683 56.7126 71.202C56.7568 70.942 56.7956 70.6488 56.8232 70.3943C57.3211 65.6365 54.7099 61.0558 50.9258 58.3007Z" fill="#F7931E"/>
<path id="Vector_15" d="M74.4933 34.971L40.055 0.51607C40.0365 0.497503 40.0145 0.4828 39.9903 0.472748C39.9661 0.462696 39.9401 0.45752 39.9139 0.45752C39.8877 0.45752 39.8617 0.462696 39.8375 0.472748C39.8133 0.4828 39.7913 0.497503 39.7728 0.51607L5.36214 34.9268C5.34256 34.9458 5.327 34.9687 5.31638 34.9938C5.30576 35.019 5.30029 35.0461 5.30029 35.0734C5.30029 35.1007 5.30576 35.1278 5.31638 35.1529C5.327 35.1781 5.34256 35.2009 5.36214 35.22L18.1693 48.0217C22.0419 44.3759 26.678 41.5157 31.0374 38.8215L32.9958 37.6099L33.6542 37.2006C36.1396 35.6742 38.1644 33.5022 39.5128 30.9159V30.8661C39.5535 30.8117 39.5796 30.7478 39.5886 30.6804C39.5977 30.613 39.5893 30.5445 39.5643 30.4813C39.5394 30.4181 39.4987 30.3623 39.4461 30.3193C39.3935 30.2762 39.3308 30.2474 39.2639 30.2354C37.5378 29.5992 37.914 27.8123 39.1643 26.7501C39.2146 26.7154 39.2492 26.6622 39.2606 26.6021C39.272 26.5421 39.2593 26.48 39.2252 26.4292C39.1772 26.3553 39.1445 26.2726 39.1288 26.186C39.1132 26.0993 39.1149 26.0104 39.134 25.9244C39.153 25.8384 39.189 25.7571 39.2398 25.6851C39.2906 25.6132 39.3552 25.5521 39.4298 25.5053C39.5571 25.4113 39.5405 25.3394 39.3911 25.3007C33.5878 23.7848 34.0303 15.5639 39.6622 14.5404C40.2154 14.4463 40.2154 14.5127 39.7231 14.7395C38.6554 15.2905 37.8292 16.2167 37.4033 17.3402C36.9774 18.4636 36.982 19.7048 37.4161 20.825C38.6996 23.8899 43.1199 25.2121 45.4821 22.4847C45.969 21.9315 46.0354 21.9647 45.6592 22.623C45.1865 23.5136 44.476 24.2556 43.6067 24.7664C42.7374 25.2772 41.7435 25.5368 40.7355 25.5164C40.5971 25.5164 40.5529 25.5883 40.5916 25.7156C40.6989 26.0268 40.6831 26.3672 40.5474 26.6671C40.5286 26.7171 40.5296 26.7725 40.5501 26.8218C40.5707 26.8711 40.6093 26.9107 40.658 26.9326C42.1683 27.6518 42.0687 29.909 40.4865 30.252C40.4371 30.2613 40.3905 30.282 40.3503 30.3123C40.3102 30.3426 40.2776 30.3818 40.2551 30.4268C40.2326 30.4718 40.2209 30.5213 40.2207 30.5716C40.2205 30.6219 40.232 30.6716 40.2541 30.7167L40.2818 30.772C41.5716 33.4252 43.5978 35.6511 46.1184 37.1839L46.8431 37.6376L48.796 38.8492C53.1499 41.5378 57.7693 44.3814 61.6474 48.0217L74.4933 35.1702C74.5121 35.1611 74.5278 35.147 74.5389 35.1294C74.5499 35.1118 74.5557 35.0914 74.5557 35.0706C74.5557 35.0498 74.5499 35.0295 74.5389 35.0119C74.5278 34.9943 74.5121 34.9801 74.4933 34.971ZM43.6731 18.6121L42.4505 19.4807C42.4314 19.4965 42.4172 19.5173 42.4094 19.5408C42.4016 19.5642 42.4005 19.5894 42.4062 19.6135L42.8875 21.0297C42.8944 21.052 42.8941 21.0759 42.8866 21.098C42.8792 21.1201 42.8649 21.1392 42.8459 21.1527C42.8268 21.1662 42.804 21.1734 42.7807 21.1731C42.7574 21.1729 42.7348 21.1653 42.716 21.1515L41.521 20.2552C41.5016 20.2417 41.4784 20.2344 41.4547 20.2344C41.4309 20.2344 41.4077 20.2417 41.3883 20.2552L40.1933 21.1404C40.1746 21.1542 40.1519 21.1619 40.1286 21.1621C40.1052 21.1623 40.0825 21.1552 40.0634 21.1417C40.0444 21.1282 40.0302 21.109 40.0227 21.0869C40.0152 21.0648 40.0149 21.041 40.0218 21.0187L40.5031 19.6024C40.5103 19.5784 40.5099 19.5528 40.502 19.529C40.494 19.5053 40.479 19.4845 40.4588 19.4696L39.2362 18.6121C39.215 18.5992 39.1988 18.5794 39.1902 18.5561C39.1815 18.5328 39.181 18.5073 39.1887 18.4836C39.1964 18.46 39.2118 18.4396 39.2324 18.4258C39.2531 18.412 39.2778 18.4055 39.3026 18.4074H40.7963C40.8207 18.4086 40.8448 18.4016 40.8648 18.3875C40.8848 18.3735 40.8996 18.3533 40.9069 18.33L41.3495 16.9027C41.3551 16.8782 41.3688 16.8564 41.3884 16.8407C41.408 16.8251 41.4323 16.8166 41.4574 16.8166C41.4825 16.8166 41.5068 16.8251 41.5264 16.8407C41.546 16.8564 41.5597 16.8782 41.5653 16.9027L42.0023 18.33C42.0096 18.3533 42.0245 18.3735 42.0445 18.3875C42.0645 18.4016 42.0886 18.4086 42.113 18.4074H43.6067C43.6297 18.4091 43.6517 18.4176 43.6699 18.4319C43.6881 18.4461 43.7016 18.4655 43.7087 18.4875C43.7158 18.5094 43.7163 18.533 43.7099 18.5552C43.7036 18.5774 43.6907 18.5972 43.6731 18.6121Z" fill="#F7931E"/>
<path id="Vector_16" d="M15.5803 22.0315L26.8661 10.7457C26.8827 10.7295 26.894 10.7086 26.8986 10.6858C26.9033 10.6631 26.901 10.6394 26.892 10.618C26.8831 10.5966 26.8679 10.5783 26.8485 10.5656C26.8291 10.5528 26.8063 10.5462 26.7831 10.5465H15.4862C15.4705 10.5458 15.4548 10.5482 15.4401 10.5537C15.4253 10.5592 15.4118 10.5677 15.4005 10.5785C15.3891 10.5894 15.38 10.6025 15.3738 10.6169C15.3677 10.6314 15.3645 10.647 15.3645 10.6627V21.9596C15.3656 21.9842 15.3741 22.008 15.3889 22.0277C15.4037 22.0473 15.4242 22.0621 15.4476 22.0699C15.471 22.0777 15.4962 22.0782 15.5199 22.0713C15.5436 22.0645 15.5646 22.0506 15.5803 22.0315Z" fill="url(#paint10_linear_2003_97)"/>
<path id="Vector_17" d="M64.2142 22.0479C64.232 22.0652 64.2544 22.0768 64.2787 22.0815C64.303 22.0862 64.3281 22.0837 64.351 22.0743C64.3739 22.0649 64.3936 22.049 64.4076 22.0286C64.4216 22.0082 64.4294 21.9841 64.4299 21.9594V10.657C64.43 10.6405 64.4266 10.6242 64.4202 10.6091C64.4137 10.594 64.4043 10.5803 64.3924 10.5689C64.3805 10.5575 64.3664 10.5487 64.351 10.5429C64.3356 10.5371 64.3191 10.5345 64.3027 10.5353H53.0113C52.9866 10.5358 52.9626 10.5436 52.9422 10.5576C52.9218 10.5716 52.9059 10.5913 52.8965 10.6142C52.8871 10.6371 52.8846 10.6622 52.8893 10.6865C52.8939 10.7108 52.9056 10.7332 52.9228 10.751L64.2142 22.0479Z" fill="url(#paint11_linear_2003_97)"/>
<path id="Vector_18" d="M34.6663 45.4276L39.9165 42.1581C41.9911 43.4415 43.7614 44.548 45.1721 45.4276C54.9034 51.5131 65.5972 57.2833 67.3399 69.8249C67.3897 70.1679 67.4284 70.5109 67.4561 70.8429C67.6309 69.0208 67.5919 67.1845 67.3399 65.3715C65.5972 52.8298 54.9034 47.0486 45.1721 40.9797C43.7614 40.0945 41.9911 38.9936 39.9165 37.7046L34.6663 40.9797C24.9351 47.0652 14.2412 52.8298 12.4985 65.3715C12.2476 67.1845 12.2068 69.0205 12.3768 70.8429C12.41 70.5109 12.4487 70.1679 12.4985 69.8249C14.2412 57.2833 24.9351 51.5021 34.6663 45.4276Z" fill="url(#paint12_linear_2003_97)"/>
</g>
<defs>
<linearGradient id="paint0_linear_2003_97" x1="47.8722" y1="39.2476" x2="146.833" y2="100.196" gradientUnits="userSpaceOnUse">
<stop stop-color="#00EB8E"/>
<stop offset="1" stop-color="#03B5B7"/>
</linearGradient>
<linearGradient id="paint1_linear_2003_97" x1="55.794" y1="26.3851" x2="154.755" y2="87.3341" gradientUnits="userSpaceOnUse">
<stop stop-color="#00EB8E"/>
<stop offset="1" stop-color="#03B5B7"/>
</linearGradient>
<linearGradient id="paint2_linear_2003_97" x1="56.2037" y1="25.7157" x2="155.165" y2="86.6645" gradientUnits="userSpaceOnUse">
<stop stop-color="#00EB8E"/>
<stop offset="1" stop-color="#03B5B7"/>
</linearGradient>
<linearGradient id="paint3_linear_2003_97" x1="51.8219" y1="32.8299" x2="150.789" y2="93.7793" gradientUnits="userSpaceOnUse">
<stop stop-color="#00EB8E"/>
<stop offset="1" stop-color="#03B5B7"/>
</linearGradient>
<linearGradient id="paint4_linear_2003_97" x1="61.0443" y1="17.8546" x2="160.006" y2="78.8091" gradientUnits="userSpaceOnUse">
<stop stop-color="#00EB8E"/>
<stop offset="1" stop-color="#03B5B7"/>
</linearGradient>
<linearGradient id="paint5_linear_2003_97" x1="55.8717" y1="26.2576" x2="154.838" y2="87.2062" gradientUnits="userSpaceOnUse">
<stop stop-color="#00EB8E"/>
<stop offset="1" stop-color="#03B5B7"/>
</linearGradient>
<linearGradient id="paint6_linear_2003_97" x1="67.9098" y1="6.70696" x2="166.877" y2="67.656" gradientUnits="userSpaceOnUse">
<stop stop-color="#00EB8E"/>
<stop offset="1" stop-color="#03B5B7"/>
</linearGradient>
<linearGradient id="paint7_linear_2003_97" x1="63.1129" y1="14.5015" x2="162.074" y2="75.4512" gradientUnits="userSpaceOnUse">
<stop stop-color="#00EB8E"/>
<stop offset="1" stop-color="#03B5B7"/>
</linearGradient>
<linearGradient id="paint8_linear_2003_97" x1="75.8267" y1="-6.14462" x2="174.788" y2="54.8097" gradientUnits="userSpaceOnUse">
<stop stop-color="#00EB8E"/>
<stop offset="1" stop-color="#03B5B7"/>
</linearGradient>
<linearGradient id="paint9_linear_2003_97" x1="69.2315" y1="4.5656" x2="168.193" y2="65.5153" gradientUnits="userSpaceOnUse">
<stop stop-color="#00EB8E"/>
<stop offset="1" stop-color="#03B5B7"/>
</linearGradient>
<linearGradient id="paint10_linear_2003_97" x1="70.1671" y1="-14.2104" x2="3.65818" y2="22.9055" gradientUnits="userSpaceOnUse">
<stop stop-color="#00EB8E"/>
<stop offset="1" stop-color="#03B5B7"/>
</linearGradient>
<linearGradient id="paint11_linear_2003_97" x1="80.4182" y1="4.16765" x2="13.9093" y2="41.2837" gradientUnits="userSpaceOnUse">
<stop stop-color="#00EB8E"/>
<stop offset="1" stop-color="#03B5B7"/>
</linearGradient>
<linearGradient id="paint12_linear_2003_97" x1="70.0728" y1="36.3437" x2="-8.66241" y2="110.249" gradientUnits="userSpaceOnUse">
<stop stop-color="#00EB8E"/>
<stop offset="1" stop-color="#03B5B7"/>
</linearGradient>
<clipPath id="clip0_2003_97">
<rect width="170.881" height="70.7466" fill="white"/>
</clipPath>
</defs>
</svg>
