<svg width="374" height="234" stroke="white" stroke-width="4" viewBox="0 0 374 234" fill="none" xmlns="http://www.w3.org/2000/svg">
<path d="M335.165 163.438H341.035V163.642C358.647 163.642 373.14 179.53 373.14 199.288V232.65H0.725098V199.085C0.725098 179.53 15.0346 163.438 32.8298 163.438H38.7004C40.7184 152.846 49.1574 144.698 59.4309 144.698H73.3735C73.3735 144.698 64.0173 130.439 66.5857 103.755C69.154 77.0714 101.442 58.3315 148.04 33.2771C180.145 15.963 186.933 0.889648 186.933 0.889648C186.933 0.889648 191.335 14.9446 225.825 33.2771C272.606 57.9241 304.711 77.0714 307.279 103.755C309.848 130.439 300.492 144.698 300.492 144.698H314.434C324.708 144.698 333.147 152.642 335.165 163.438Z" fill="url(#paint0_radial_20_73)"/>
<path d="M182.005 64.6234C182.005 64.6234 182.005 64.6234 182.125 64.6234C182.364 64.6234 182.604 64.6234 182.724 64.4199C182.724 64.4199 184.281 62.2826 183.562 60.6543C182.724 59.0259 179.969 58.5171 179.849 58.5171C179.609 58.5171 179.37 58.5171 179.13 58.7206C179.13 58.7206 177.573 60.8578 178.292 62.4862C179.13 64.1145 181.885 64.6234 182.005 64.6234ZM179.969 59.6366C180.687 59.8401 181.885 60.2472 182.245 61.0614C182.604 61.7738 182.245 62.8933 181.765 63.4021C181.047 63.1986 179.849 62.6897 179.489 61.9773C179.13 61.2649 179.489 60.2472 179.969 59.6366Z" fill="white"/>
<path d="M171.703 70.7287C172.063 70.8304 172.542 70.9322 172.901 70.9322C174.458 70.9322 176.016 70.118 176.016 70.0163C176.255 69.9145 176.375 69.711 176.255 69.4056C176.255 69.4056 175.656 66.9631 173.74 66.2507C171.823 65.5383 169.427 66.8613 169.307 66.9631C169.068 67.0649 168.948 67.2684 169.068 67.5737C169.068 67.5737 169.667 70.0163 171.583 70.7287H171.703ZM173.38 67.3702C174.219 67.6755 174.818 68.6932 175.057 69.3039C174.339 69.6092 173.141 70.0163 172.302 69.7109C171.464 69.4056 170.865 68.3879 170.625 67.7773C171.224 67.472 172.542 67.0649 173.38 67.3702Z" fill="white"/>
<path d="M204.046 67.0653C204.046 67.0653 201.53 65.7423 199.614 66.3529C197.697 67.0653 197.098 69.4061 197.098 69.5078C197.098 69.7114 197.098 69.9149 197.338 70.1185C197.338 70.1185 198.895 71.0344 200.452 71.0344C202.01 71.0344 201.291 71.0344 201.65 70.8309C203.567 70.1185 204.166 67.7777 204.166 67.6759C204.166 67.4724 204.166 67.2688 203.926 67.0653H204.046ZM201.291 69.7114C200.452 70.0167 199.254 69.7114 198.536 69.3043C198.775 68.6936 199.254 67.6759 200.213 67.3706C201.051 67.0653 202.369 67.3706 202.968 67.7777C202.728 68.3883 202.129 69.4061 201.291 69.7114Z" fill="white"/>
<path d="M193.624 58.516C193.624 58.516 190.749 59.0249 189.91 60.6532C189.072 62.2816 190.629 64.317 190.749 64.4188C190.868 64.6223 191.108 64.6223 191.348 64.6223C191.587 64.6223 191.348 64.6223 191.467 64.6223C191.467 64.6223 194.342 64.1135 195.181 62.4851C196.019 60.8568 194.462 58.8213 194.342 58.7195C194.223 58.516 193.983 58.4142 193.624 58.516ZM193.863 62.078C193.504 62.7904 192.306 63.2993 191.587 63.5028C191.228 62.994 190.749 61.8745 191.108 61.1621C191.467 60.4497 192.665 59.9408 193.384 59.7373C193.743 60.2461 194.223 61.3656 193.863 62.078Z" fill="white"/>
<path d="M203.207 86.6049C207.52 75.9188 207.52 67.0647 203.207 56.3787C204.765 55.9716 205.843 54.8521 205.962 53.4273C205.962 52.5113 205.723 51.4936 204.884 50.883C204.166 50.1706 203.088 49.7635 201.89 49.7635H200.931C202.009 48.644 203.327 46.6086 202.608 43.6572C201.291 38.2633 192.306 34.803 188.593 33.6835C188.952 33.2764 189.312 32.8694 189.312 32.2587C189.312 31.3428 188.593 30.6304 187.635 30.3251V6.20515C187.635 5.89983 187.395 5.69629 187.036 5.69629C186.676 5.69629 186.437 5.89983 186.437 6.20515V30.3251C185.478 30.5286 184.76 31.3428 184.76 32.2587C184.76 33.1747 184.999 33.2764 185.478 33.6835C181.885 34.9048 172.9 38.5686 171.463 43.6572C170.505 46.6086 171.942 48.7458 173.14 49.8653H172.062C170.984 49.8653 169.906 50.2723 169.067 50.9847C168.348 51.6971 167.869 52.6131 167.989 53.529C168.109 54.9538 169.307 56.0733 170.864 56.4804C166.312 67.37 166.192 75.9189 170.864 86.7067C169.426 87.1138 168.228 88.2332 168.109 89.658C168.109 90.574 168.348 91.5917 169.187 92.2023C169.906 92.9147 170.984 93.3218 172.182 93.3218H173.14C172.062 94.4413 170.744 96.4768 171.463 99.4281C173.02 106.043 186.437 109.707 187.036 109.911C187.036 109.911 187.155 109.911 187.275 109.911C187.395 109.911 187.395 109.911 187.515 109.911C188.114 109.707 201.171 105.636 202.968 99.5299C203.926 96.5785 202.489 94.4413 201.291 93.3218H202.369C203.447 93.3218 204.525 92.9147 205.364 92.2023C206.082 91.4899 206.561 90.574 206.442 89.658C206.322 88.335 205.244 87.2155 203.806 86.7067L203.207 86.6049ZM168.468 70.7285C169.067 70.932 169.546 71.2373 169.786 71.6444C169.786 71.848 170.145 71.9498 170.385 71.9498L172.541 73.5781L170.385 75.2064C170.145 75.2064 169.906 75.3082 169.786 75.5118C169.546 75.9189 169.307 76.1224 168.827 76.3259C168.468 74.3923 168.348 72.4586 168.468 70.6267V70.7285ZM170.744 59.5336L171.942 59.8389C172.062 59.8389 172.182 59.8389 172.301 59.8389H172.541C172.781 59.7371 173.26 59.6353 173.619 59.5336C174.817 59.33 175.895 59.7371 176.374 60.5513C176.614 61.0602 176.734 61.4672 176.374 61.9761C176.374 62.1796 176.374 62.3832 176.494 62.5867V65.0293H173.739C173.499 64.7239 173.26 64.7239 173.02 64.8257C172.421 65.0293 171.942 64.9275 171.343 64.8257C170.385 64.4186 169.906 63.5027 170.145 62.485C170.145 62.1796 170.265 61.8743 170.385 61.569V61.3655C170.385 61.2637 170.385 61.1619 170.385 61.0602L170.145 60.5513C170.145 60.246 170.385 59.8389 170.505 59.5336H170.744ZM203.327 60.4495L203.088 60.9584C203.088 61.0602 203.088 61.1619 203.088 61.2637V61.4672C203.207 61.6708 203.327 62.0779 203.447 62.3832C203.686 63.4009 203.207 64.3169 202.249 64.7239C201.65 64.9275 201.171 65.0293 200.572 64.7239C200.332 64.7239 200.093 64.7239 199.853 64.8257H196.978V62.485H197.098C197.338 62.2814 197.338 62.0779 197.218 61.8743C196.978 61.3655 197.098 60.9584 197.218 60.4495C197.697 59.6354 198.775 59.2283 199.973 59.4318C200.332 59.4318 200.692 59.5336 201.051 59.6353H201.291C201.41 59.6353 201.53 59.6353 201.65 59.6353L202.848 59.2283C202.848 59.5336 203.087 59.8389 203.207 60.1442L203.327 60.4495ZM204.884 76.5295C204.405 76.3259 204.046 76.1224 203.926 75.7153C203.926 75.5118 203.567 75.41 203.327 75.41L201.171 73.7816L203.327 72.1533C203.567 72.1533 203.806 72.0515 203.926 71.848C204.166 71.3391 204.645 71.0338 205.124 70.932C205.124 72.8657 205.124 74.6976 204.765 76.6312L204.884 76.5295ZM177.812 85.2818C177.812 85.2818 177.812 85.0783 177.932 84.9765V81.7198C178.051 81.7198 178.051 81.7198 178.051 81.7198L183.681 79.8879L186.197 84.773L184.4 86.4013H183.322C183.322 86.4013 183.322 86.2996 183.322 86.1978C184.161 84.5695 182.603 82.534 182.484 82.4322C182.364 82.2287 182.124 82.1269 181.765 82.2287C181.765 82.2287 178.89 82.7376 178.051 84.3659C177.692 84.9765 177.812 85.6889 178.051 86.2996H177.572C177.572 85.8925 177.572 85.5872 177.572 85.1801L177.812 85.2818ZM183.681 71.3391C184.041 71.3391 184.28 71.1356 184.28 70.8302L184.52 68.7948L186.437 70.1179C186.556 70.1179 186.676 70.2196 186.796 70.2196C186.916 70.2196 187.036 70.2196 187.155 70.1179L189.072 68.7948L189.312 70.8302C189.312 71.1356 189.551 71.3391 189.911 71.3391L192.306 71.5427L190.749 73.171C190.51 73.3745 190.51 73.6799 190.749 73.8834L192.306 75.5118L189.911 75.7153C189.551 75.7153 189.312 75.9188 189.312 76.2242L189.072 78.2596L187.155 76.9366C186.916 76.733 186.556 76.733 186.317 76.9366L184.4 78.2596L184.161 76.2242C184.161 75.9188 183.921 75.7153 183.562 75.7153L181.166 75.5118L182.723 73.8834C182.963 73.6799 182.963 73.3745 182.723 73.171L181.166 71.5427L183.562 71.3391H183.681ZM184.52 59.2283C183.921 59.0247 183.562 58.6176 183.442 58.2105C183.322 57.8035 183.322 57.2946 183.442 56.8875H190.15C190.39 57.2946 190.39 57.8035 190.15 58.2105C189.911 58.7194 189.551 59.0247 189.072 59.33C188.832 59.33 188.713 59.6354 188.713 59.8389L186.796 61.6708L184.879 59.8389C184.879 59.6354 184.76 59.4318 184.52 59.33V59.2283ZM186.796 63.808L188.713 67.5736L186.796 68.9984L184.879 67.5736L186.796 63.808ZM179.609 84.8748C179.968 84.1624 181.166 83.6535 181.885 83.45C182.244 84.0606 182.723 85.0783 182.364 85.7907C182.364 85.9943 182.124 86.1978 181.885 86.4013H179.728C179.489 85.8925 179.489 85.2819 179.728 84.8748H179.609ZM186.796 83.1447L184.879 79.3791L186.796 77.9543L188.713 79.3791L186.796 83.1447ZM186.796 85.8925L187.395 86.4013H186.197L186.796 85.8925ZM191.108 85.8925C190.749 85.1801 191.108 84.1624 191.588 83.5517C192.306 83.7553 193.504 84.1624 193.864 84.9765C194.103 85.4854 193.983 86.096 193.864 86.6049H191.707C191.468 86.4013 191.228 86.1978 191.108 85.9943V85.8925ZM195.66 85.0783C195.66 85.1801 195.66 85.2819 195.66 85.3836C195.541 85.7907 195.66 86.1978 195.66 86.5031H195.062C195.301 85.8925 195.301 85.1801 195.062 84.4677C194.223 82.8393 191.468 82.3305 191.348 82.3305C191.108 82.3305 190.869 82.3305 190.629 82.534C190.629 82.534 189.072 84.6712 189.791 86.2996C189.791 86.2996 189.791 86.4014 189.791 86.5031H188.832L187.036 84.773L189.551 79.8879L195.301 81.8216V85.0783H195.66ZM190.27 78.8702L190.51 76.733L193.025 76.5295L194.822 80.3968L190.27 78.8702ZM193.624 75.2064L191.947 73.5781L193.624 71.9498L198.056 73.5781L193.624 75.2064ZM193.025 70.5249L190.51 70.3214L190.27 68.1842L194.822 66.6576L193.025 70.5249ZM183.082 70.3214L180.567 70.5249L178.77 66.6576L183.322 68.1842L183.082 70.3214ZM179.968 71.848L181.645 73.4763L179.968 75.1047L175.536 73.4763L179.968 71.848ZM180.567 76.5295L183.082 76.733L183.322 78.8702L178.77 80.3968L180.567 76.5295ZM197.218 86.5031C197.098 86.096 197.218 85.7907 197.218 85.3836C197.218 85.1801 197.218 84.9765 197.098 84.773V82.3305H199.853C200.093 82.6358 200.332 82.6358 200.572 82.534C201.171 82.3305 201.65 82.4322 202.249 82.534C202.608 82.7376 202.968 82.9411 203.207 83.3482C202.848 84.3659 202.489 85.3836 202.129 86.4013H197.338L197.218 86.5031ZM202.848 81.7198C202.129 81.4145 201.291 81.3127 200.452 81.4145C200.452 81.4145 200.213 81.4145 200.093 81.4145H196.499C196.499 81.211 196.499 81.211 196.499 81.1092L194.223 76.1224L199.614 74.087L202.489 76.3259C202.489 76.3259 202.728 76.4277 202.848 76.4277C203.327 77.1401 204.046 77.4454 204.645 77.649C204.645 78.1578 204.405 78.6667 204.285 79.1755C204.166 78.7685 203.567 76.733 201.77 76.1224C199.853 75.41 197.457 76.733 197.338 76.8348C197.098 76.9366 196.978 77.1401 197.098 77.4454C197.098 77.4454 197.697 79.888 199.614 80.6004C199.973 80.7021 200.452 80.8039 200.811 80.8039C202.369 80.8039 203.926 79.9897 203.926 79.8879C203.686 80.7021 203.567 81.4145 203.327 82.2287C203.088 82.0252 202.848 81.9234 202.608 81.8216L202.848 81.7198ZM202.968 79.1755C202.249 79.4809 201.051 79.888 200.213 79.5826C199.374 79.2773 198.775 78.2596 198.535 77.649C199.134 77.3436 200.452 76.9366 201.291 77.2419C202.129 77.5472 202.728 78.5649 202.968 79.1755ZM204.765 69.8125C203.926 70.0161 203.327 70.4232 202.848 71.0338C202.728 71.0338 202.608 71.0338 202.489 71.1356L200.093 73.0692L194.343 70.932L196.499 66.3523H200.213C200.332 66.2505 200.452 66.1487 200.572 66.1487C201.41 66.3523 202.129 66.1488 202.968 65.8434C203.686 65.5381 204.285 65.0293 204.525 64.4186C204.884 66.2505 205.244 67.9806 205.364 69.7108C205.244 69.7108 205.124 69.7108 204.884 69.7108L204.765 69.8125ZM201.53 58.923C201.171 58.923 200.811 58.7194 200.332 58.7194C198.535 58.5159 196.978 59.1265 196.259 60.3478C195.9 60.9584 195.78 61.6708 196.02 62.2814C196.02 62.2814 196.02 62.485 195.9 62.5867V65.3346L190.03 67.2682L187.754 62.6885L190.15 60.5513C190.15 60.5513 190.27 60.3478 190.27 60.246C190.989 59.9407 191.468 59.33 191.707 58.6176C191.947 58.007 191.947 57.4981 191.707 56.8875H202.129C202.369 57.3964 202.608 58.007 202.848 58.5159L201.77 58.8212L201.53 58.923ZM171.822 56.9893H182.124C182.004 57.4981 182.004 58.007 182.124 58.6176C182.364 59.33 182.843 59.8389 183.562 60.1442C183.562 60.246 183.562 60.3478 183.681 60.4495L185.957 62.5867L183.562 67.1665L177.932 65.3346V62.5867C177.812 62.485 177.692 62.3832 177.692 62.2814C177.932 61.569 177.692 60.9584 177.333 60.246C176.614 59.0247 174.937 58.4141 173.26 58.6176C172.781 58.6176 172.421 58.8212 172.062 58.8212L171.103 58.5159C171.343 58.007 171.463 57.3964 171.702 56.8875L171.822 56.9893ZM170.864 65.8434C171.583 66.1488 172.421 66.2505 173.26 66.1487C173.26 66.1487 173.499 66.1487 173.619 66.1487H177.213L179.369 70.8302L173.619 72.9675L171.223 71.1356C171.223 71.1356 170.984 71.0338 170.864 71.0338C170.505 70.4232 169.786 70.0161 168.947 69.8125C168.827 69.8125 168.708 69.8125 168.468 69.8125C168.468 68.0824 168.827 66.3523 169.307 64.5204C169.666 65.131 170.145 65.6399 170.864 65.9452V65.8434ZM173.379 79.5826C172.541 79.888 171.223 79.5826 170.624 79.1755C170.864 78.5649 171.463 77.5472 172.301 77.2419C173.14 76.9366 174.338 77.2419 175.057 77.649C174.817 78.2596 174.338 79.2773 173.379 79.5826ZM172.661 80.8039C173.02 80.8039 173.499 80.8039 173.859 80.6004C175.775 79.888 176.374 77.5472 176.374 77.4454C176.374 77.2419 176.374 77.0383 176.135 76.8348C176.135 76.8348 173.619 75.5118 171.702 76.1224C170.145 76.6312 169.546 78.1578 169.307 78.8702C169.307 78.4631 169.067 78.0561 169.067 77.5472C169.786 77.3437 170.385 76.9366 170.864 76.3259C170.984 76.3259 171.103 76.3259 171.223 76.2242L174.098 73.9852L179.369 75.9188L177.093 80.9057C177.093 80.9057 177.093 80.9057 177.093 81.0074H173.739C173.619 81.1092 173.499 81.211 173.379 81.211C172.661 81.0074 171.822 81.211 170.984 81.5163C170.744 81.6181 170.505 81.8216 170.265 81.9234C170.025 81.211 169.786 80.4986 169.666 79.7862C170.025 79.9897 171.343 80.6004 172.781 80.6004L172.661 80.8039ZM171.463 82.7376C171.822 82.6358 172.062 82.534 172.421 82.534C172.781 82.534 172.9 82.534 173.14 82.6358C173.379 82.6358 173.619 82.6358 173.859 82.534H176.734V84.8748H176.614C176.374 85.0783 176.374 85.2819 176.494 85.4854C176.614 85.7907 176.614 86.1978 176.494 86.5031H171.702C171.223 85.4854 170.864 84.4677 170.505 83.45C170.744 83.1446 170.984 82.9411 171.343 82.7376H171.463ZM172.182 44.6749C172.182 44.6749 172.301 44.6749 172.421 44.6749C172.661 44.6749 172.9 44.6749 173.14 44.7767C173.379 44.7767 173.619 44.7767 173.859 44.6749H176.734V47.0157H176.614C176.374 47.2192 176.374 47.4227 176.494 47.6263C176.734 48.1351 176.734 48.5422 176.494 49.0511C176.254 49.4582 175.895 49.7635 175.416 49.8653H174.817C174.098 49.4582 171.942 47.7281 172.421 44.6749H172.182ZM172.781 42.9448C173.14 42.9448 173.499 42.9448 173.859 42.7412C175.775 42.0288 176.374 39.6881 176.374 39.5863C176.374 39.5863 176.374 39.3828 176.374 39.281C177.093 38.7721 177.692 38.365 178.411 37.958L179.129 38.2633L176.853 43.2501C176.853 43.2501 176.853 43.2501 176.853 43.3519H173.499C173.379 43.4536 173.26 43.5554 173.14 43.5554C172.9 43.5554 172.661 43.5554 172.541 43.5554C172.541 43.3519 172.661 43.1483 172.781 42.9448ZM186.796 34.2942C187.275 34.3959 188.713 34.9048 190.51 35.5154C190.51 35.6172 190.51 35.8207 190.629 35.9225L192.187 37.5509L189.791 37.7544C189.431 37.7544 189.192 37.958 189.192 38.2633L188.952 40.2987L187.036 38.9757C186.796 38.7721 186.437 38.7721 186.197 38.9757L184.28 40.2987L184.041 38.2633C184.041 37.958 183.801 37.7544 183.442 37.7544L181.046 37.5509L182.603 35.9225C182.603 35.9225 182.603 35.8207 182.603 35.719C184.52 34.9048 185.957 34.3959 186.556 34.1924L186.796 34.2942ZM200.213 41.7235C200.213 41.7235 200.213 41.7235 200.213 41.6217C200.213 41.6217 200.213 41.6217 200.332 41.7235H200.213ZM199.614 42.7412C199.973 42.843 200.452 42.9448 200.811 42.9448C200.811 43.1483 200.931 43.3519 201.051 43.5554C200.811 43.5554 200.572 43.5554 200.332 43.5554C200.332 43.5554 200.093 43.5554 199.973 43.5554H196.379C196.379 43.3519 196.379 43.3519 196.379 43.2501L194.103 38.2633L195.301 37.8562C196.02 38.2633 196.619 38.6704 197.218 39.0774C196.978 39.1792 196.858 39.3828 196.978 39.5863C196.978 39.5863 197.577 42.0288 199.494 42.7412H199.614ZM199.015 49.8653H198.416C197.937 49.6617 197.577 49.3564 197.338 48.9493C197.098 48.4404 196.978 48.0334 197.338 47.5245C197.338 47.321 197.338 47.1174 197.218 46.9139V44.4714H199.973C200.213 44.7767 200.452 44.7767 200.692 44.6749C201.051 44.6749 201.291 44.5731 201.65 44.6749C202.009 47.7281 199.973 49.4582 199.254 49.8653H199.015ZM191.108 48.0334C190.749 47.321 191.108 46.3032 191.588 45.6926C192.306 45.8962 193.504 46.3032 193.864 47.1174C194.223 47.8298 193.864 48.8475 193.384 49.4582C192.666 49.2546 191.468 48.8475 191.108 48.0334ZM195.062 46.6086C194.223 44.9802 191.468 44.4714 191.348 44.4714C191.108 44.4714 190.869 44.4714 190.629 44.6749C190.629 44.6749 189.072 46.8121 189.791 48.4404C190.15 49.0511 190.629 49.5599 191.228 49.8653H190.27C190.15 49.7635 190.03 49.6617 189.791 49.5599C189.791 49.4582 189.791 49.3564 189.671 49.2546L187.155 46.9139L189.671 42.0288L195.421 43.9625V47.2192C195.541 47.321 195.66 47.4227 195.66 47.5245C195.421 48.3387 195.66 49.0511 196.02 49.4582C196.02 49.5599 196.14 49.6617 196.259 49.7635H194.463C194.942 49.0511 195.421 47.7281 194.942 46.5068L195.062 46.6086ZM179.609 47.0157C179.968 46.3032 181.166 45.7944 181.885 45.5908C182.244 46.0997 182.723 47.2192 182.364 47.9316C182.004 48.644 180.806 49.1529 180.088 49.3564C179.728 48.7458 179.249 47.7281 179.609 47.0157ZM183.562 48.4404C184.4 46.8121 182.843 44.7767 182.723 44.6749C182.603 44.4714 182.364 44.3696 182.004 44.4714C182.004 44.4714 179.129 44.9802 178.291 46.6086C177.692 47.7281 178.291 49.1529 178.77 49.8653H177.093C177.093 49.7635 177.333 49.6617 177.333 49.5599C177.692 48.9493 177.812 48.2369 177.572 47.6263C177.572 47.6263 177.572 47.4227 177.692 47.321V44.0643C177.812 44.0643 177.812 44.0643 177.812 44.0643L183.442 42.2324L185.957 47.1174L183.442 49.4582C183.442 49.4582 183.322 49.6617 183.322 49.7635C183.202 49.7635 182.963 49.967 182.843 50.0688H181.765C182.364 49.7635 182.963 49.2546 183.202 48.644L183.562 48.4404ZM180.567 38.6704L183.082 38.8739L183.322 41.0111L178.77 42.5377L180.567 38.6704ZM186.796 45.3873L184.879 41.6217L186.796 40.1969L188.713 41.6217L186.796 45.3873ZM186.796 48.1351L188.713 49.8653H184.879L186.796 48.1351ZM193.025 38.6704L194.822 42.5377L190.27 41.0111L190.51 38.8739L193.025 38.6704ZM186.317 31.5463C186.317 31.7499 186.676 31.8516 186.916 31.8516C187.155 31.8516 187.395 31.7499 187.515 31.5463C187.754 31.7499 187.994 31.9534 187.994 32.2587C187.994 32.7676 187.515 33.1747 186.916 33.1747C186.317 33.1747 185.838 32.7676 185.838 32.2587C185.838 31.7499 186.077 31.6481 186.317 31.5463ZM169.067 53.4273C169.067 52.8166 169.307 52.206 169.786 51.6972C170.265 51.1883 170.984 50.9847 171.822 50.9847H174.458H201.77C202.489 50.9847 203.207 51.2901 203.806 51.6972C204.285 52.206 204.525 52.8166 204.525 53.4273C204.525 54.6485 203.207 55.5645 201.77 55.5645H171.583C170.145 55.5645 168.947 54.6485 168.827 53.4273H169.067ZM201.41 98.5122C201.051 98.5122 200.811 98.5122 200.452 98.5122C200.213 98.5122 199.973 98.5122 199.733 98.614H196.858V96.2732H196.978C197.218 96.0697 197.218 95.8661 197.098 95.6626C196.858 95.1537 196.978 94.7466 197.098 94.2378C197.338 93.8307 197.697 93.5254 198.176 93.4236H198.775C199.494 93.8307 201.77 95.5608 201.171 98.614L201.41 98.5122ZM200.811 100.242C200.452 100.242 200.093 100.242 199.733 100.446C197.817 101.158 197.218 103.499 197.218 103.601C197.218 103.601 197.218 103.804 197.218 103.906C196.499 104.415 195.9 104.822 195.181 105.229L194.463 104.924L196.739 99.937C196.739 99.937 196.739 99.937 196.739 99.8352H200.093C200.213 99.7335 200.332 99.6317 200.452 99.6317C200.692 99.6317 200.931 99.6317 201.051 99.6317C201.051 99.8352 200.931 100.039 200.811 100.242ZM186.796 108.893C186.317 108.791 184.879 108.282 183.082 107.672C183.082 107.57 183.083 107.366 182.963 107.265L181.405 105.636L183.801 105.433C184.161 105.433 184.4 105.229 184.4 104.924L184.64 102.888L186.556 104.211C186.676 104.211 186.796 104.313 186.916 104.313C187.036 104.313 187.155 104.313 187.275 104.211L189.192 102.888L189.431 104.924C189.431 105.229 189.671 105.433 190.03 105.433L192.426 105.636L190.869 107.265C190.869 107.265 190.869 107.366 190.869 107.468C188.952 108.282 187.515 108.791 186.916 108.995L186.796 108.893ZM179.609 106.043L179.968 105.84L180.567 106.552C180.208 106.349 179.848 106.247 179.489 106.043H179.609ZM173.978 100.446C173.499 100.344 173.14 100.242 172.661 100.242C172.661 100.039 172.541 99.8352 172.421 99.6317C172.661 99.6317 172.9 99.6317 173.14 99.6317C173.14 99.6317 173.379 99.6317 173.499 99.6317H177.093C177.093 99.8352 177.093 99.8352 177.093 99.937L179.369 104.924L178.171 105.331C177.452 104.924 176.853 104.517 176.254 104.11C176.494 104.008 176.614 103.804 176.494 103.601C176.494 103.601 175.895 101.158 173.978 100.446ZM175.057 103.194C174.458 102.685 173.859 102.074 173.379 101.464C174.218 101.769 174.697 102.583 174.937 103.194H175.057ZM174.577 93.4236H175.176C175.656 93.6271 176.015 93.9325 176.254 94.2378C176.494 94.7466 176.614 95.1537 176.254 95.6626C176.254 95.8661 176.254 96.0697 176.374 96.2732V98.7157H173.619C173.379 98.4104 173.14 98.4104 172.9 98.5122C172.541 98.5122 172.301 98.614 171.942 98.5122C171.583 95.459 173.619 93.8307 174.338 93.3218L174.577 93.4236ZM182.484 95.2555C182.843 95.9679 182.484 96.9856 182.004 97.5962C181.286 97.3927 180.088 96.9856 179.728 96.1714C179.369 95.459 179.728 94.4413 180.208 93.8307C180.926 94.0342 182.124 94.4413 182.484 95.2555ZM178.53 96.6803C179.369 98.3087 182.124 98.8175 182.244 98.8175C182.244 98.8175 182.244 98.8175 182.364 98.8175C182.603 98.8175 182.843 98.8175 182.963 98.614C182.963 98.614 184.52 96.4768 183.801 94.8484C183.442 94.2378 182.963 93.7289 182.364 93.4236H183.322C183.442 93.5254 183.562 93.6271 183.801 93.7289C183.801 93.8307 183.801 93.9325 183.921 94.0342L186.437 96.375L183.921 101.26L178.171 99.3264V96.0697C178.051 95.9679 177.932 95.8661 177.932 95.7644C178.171 95.0519 177.932 94.4413 177.572 93.7289C177.572 93.6271 177.452 93.5254 177.333 93.4236H179.129C178.65 94.136 178.171 95.459 178.65 96.6803H178.53ZM191.588 93.4236C190.989 93.7289 190.39 94.2378 190.15 94.8484C189.312 96.4768 190.869 98.5122 190.989 98.614C191.108 98.8175 191.348 98.8175 191.588 98.8175C191.827 98.8175 191.588 98.8175 191.707 98.8175C191.707 98.8175 194.582 98.3087 195.421 96.6803C196.02 95.5608 195.421 94.136 194.942 93.4236H196.619C196.619 93.5254 196.379 93.6271 196.379 93.7289C196.02 94.3395 195.9 95.052 196.14 95.6626C196.14 95.6626 196.14 95.8661 196.02 95.9679V99.2246C195.9 99.2246 195.9 99.2246 195.9 99.2246L190.27 101.056L187.754 96.1714L190.27 93.8307C190.27 93.8307 190.39 93.6271 190.39 93.5254C190.51 93.5254 190.749 93.3218 190.869 93.2201H191.947L191.588 93.4236ZM194.103 96.1714C193.744 96.8839 192.546 97.3927 191.827 97.5962C191.468 96.9856 190.989 95.9679 191.348 95.2555C191.707 94.5431 192.905 94.0342 193.624 93.8307C193.983 94.3396 194.463 95.459 194.103 96.1714ZM193.265 104.517L190.749 104.313L190.51 102.176L195.062 100.649L193.265 104.517ZM187.036 97.7998L188.952 101.565L187.036 102.99L185.119 101.565L187.036 97.7998ZM187.036 95.0519L185.119 93.3218H188.952L187.036 95.0519ZM180.806 104.517L179.01 100.649L183.562 102.176L183.322 104.313L180.806 104.517ZM204.046 91.4899C203.567 91.9988 202.848 92.2023 202.009 92.2023H171.822C171.103 92.2023 170.385 91.897 169.786 91.4899C169.187 91.0828 169.067 90.3705 169.067 89.7598C169.067 88.5386 170.385 87.6226 171.822 87.6226H202.009C203.447 87.6226 204.645 88.5386 204.765 89.7598C204.765 90.3705 204.525 91.0828 204.046 91.4899Z" fill="white"/>
<defs>
<radialGradient id="paint0_radial_20_73" cx="0" cy="0" r="1" gradientUnits="userSpaceOnUse" gradientTransform="translate(186.199 263.086) scale(363.793 289.981)">
<stop stop-color="#01DA9A"/>
<stop offset="1" stop-color="#03B7B5"/>
</radialGradient>
</defs>
</svg>
