<svg width="48" height="68" viewBox="0 0 48 68" fill="none" xmlns="http://www.w3.org/2000/svg">
<path id="Vector" d="M30.8893 67.4399C30.8893 67.4399 29.9263 32.4865 25.3376 18.3805L23.0149 24.4421L21.2587 23.8756L21.9952 26.3682C21.9952 26.3682 20.9755 29.484 20.9188 31.6934L19.0494 31.4101L20.3523 33.8461L19.5026 34.5259C19.5026 34.5259 19.276 37.9816 20.9188 41.2673C20.9188 41.2673 16.1602 35.4323 15.9336 28.5209C15.707 21.6662 19.8991 15.8878 19.8991 15.8878L14.8572 20.08L13.271 18.4371L14.0641 21.213C14.0641 21.213 10.9483 23.3091 9.4754 25.8017L7.66257 24.4987L8.79559 28.0111C8.79559 28.0111 6.64286 30.3338 6.24631 33.3362C6.24631 33.3362 3.75368 26.2549 7.37932 19.91C11.005 13.5652 18.1429 12.2056 18.1429 12.2056C18.1429 12.2056 15.6503 11.0725 11.2882 11.0159L10.6084 9.25971L9.75866 11.5824C9.75866 11.5824 5.62318 9.71292 0.751221 14.075C0.751221 14.075 3.5271 6.65378 11.968 5.57742C20.4656 4.50105 22.9583 7.56019 22.9583 7.56019C22.9583 7.56019 26.3573 -4.56306 43.7491 2.34832C43.7491 2.34832 39.1604 2.46163 35.1948 4.16115L32.5322 2.46163L34.0618 4.72766L32.0224 5.80402L29.6997 4.84097L31.0593 6.82374L29.1332 8.80651C29.1332 8.80651 37.0643 4.61436 42.5594 11.0159C48.0545 17.4174 47.0348 25.1219 47.0348 25.1219C47.0348 25.1219 45.5619 20.5898 43.5791 18.8337L43.0692 16.1711L42.5594 18.0406C42.5594 18.0406 39.8402 14.075 32.6455 13.8484C32.6455 13.8484 38.3106 16.3411 39.4436 22.9692C40.5766 29.5973 38.2539 34.5826 38.2539 34.5826C38.2539 34.5826 39.1604 28.5209 35.3081 24.2155L35.9313 22.346L34.6849 22.9125L30.8327 19.6834L32.1357 16.7376L29.9263 18.4371L27.8302 17.4174C27.8302 17.4174 37.0643 40.5309 38.0274 66.8168C38.0274 66.8168 37.0076 68.403 30.946 67.4399H30.8893Z" fill="#EAEAEA"/>
</svg>
