<svg width="17" height="24" viewBox="0 0 17 24" fill="none" xmlns="http://www.w3.org/2000/svg">
<path d="M16.0602 13.1301C16.0602 12.6149 16.0602 11.5844 16.0602 11.0691C15.3133 9.26574 12.0769 6.94711 10.8321 5.65899C10.0852 4.88612 10.0852 3.85565 10.3342 2.82515C10.3342 2.56753 11.081 1.79466 11.081 1.53703C10.8321 0.76416 8.84044 0.506513 8.09357 0.506513C7.3467 0.506513 5.35505 0.506536 5.10609 1.53703C5.10609 1.79466 5.60401 2.56753 5.85297 2.82515C6.35088 3.59802 6.1019 4.88612 5.35503 5.65899C4.11024 6.94711 0.873823 9.26574 0.126953 11.0691C0.126953 11.5844 0.126953 12.6149 0.126953 13.1301C1.12278 16.2216 4.85713 23.4351 8.09357 23.4351C11.33 23.4351 15.0644 16.2216 16.0602 13.1301Z" fill="#02BAB3"/>
</svg>
